<?xml version="1.0" standalone="no"?>
<!DOCTYPE svg PUBLIC "-//W3C//DTD SVG 1.1//EN" "http://www.w3.org/Graphics/SVG/1.1/DTD/svg11.dtd" >
<svg xmlns="http://www.w3.org/2000/svg">
<metadata>Generated by IcoMoon</metadata>
<defs>
<font id="icons" horiz-adv-x="1024">
<font-face units-per-em="1024" ascent="896" descent="-128" />
<missing-glyph horiz-adv-x="1024" />
<glyph unicode="&#x20;" horiz-adv-x="0" d="" />
<glyph unicode="&#xe900;" glyph-name="not-paid" d="M691.2 579.2v0l-3.2 54.4c0 3.2 0 3.2 0 6.4v6.4c-6.4 44.8-41.6 83.2-102.4 112-64 28.8-147.2 44.8-233.6 44.8s-169.6-16-230.4-44.8c-64-28.8-102.4-70.4-102.4-118.4v0c0-3.2 0-3.2 0-6.4v-406.4c0-48 38.4-92.8 105.6-124.8 60.8-28.8 144-44.8 230.4-44.8 32 0 64 3.2 96 6.4 60.8-73.6 150.4-115.2 243.2-115.2 172.8-3.2 313.6 140.8 313.6 313.6-3.2 176-140.8 316.8-316.8 316.8v0zM355.2 768c80 0 160-16 214.4-41.6 51.2-25.6 83.2-57.6 83.2-89.6v-3.2c0-22.4-16-48-41.6-64-38.4-9.6-70.4-25.6-102.4-48-48-12.8-102.4-19.2-156.8-19.2-83.2 0-163.2 16-217.6 41.6-48 25.6-80 54.4-83.2 83.2v9.6c0 3.2 0 3.2 0 3.2 3.2 32 32 64 83.2 86.4 60.8 25.6 140.8 41.6 220.8 41.6zM384 329.6c-3.2-22.4-6.4-44.8-6.4-67.2 0-16 0-28.8 3.2-38.4-9.6 0-16 0-25.6 0-83.2 0-160 16-217.6 41.6-51.2 25.6-83.2 60.8-83.2 92.8v60.8c16-16 38.4-32 67.2-48 60.8-28.8 144-48 233.6-48 9.6 6.4 19.2 6.4 28.8 6.4v0zM355.2 364.8c-83.2 0-160 16-217.6 41.6-51.2 25.6-83.2 57.6-83.2 92.8v54.4c16-16 38.4-32 67.2-44.8 60.8-28.8 144-48 233.6-48 35.2 0 70.4 3.2 99.2 6.4-25.6-28.8-48-64-60.8-102.4-12.8 3.2-25.6 0-38.4 0v0zM54.4 278.4c16-16 38.4-32 67.2-44.8 60.8-28.8 144-48 233.6-48 9.6 0 22.4 0 32 0 6.4-32 19.2-60.8 38.4-89.6-25.6-3.2-48-3.2-70.4-3.2-83.2 0-163.2 16-217.6 41.6-51.2 25.6-83.2 57.6-83.2 92.8v51.2zM969.6 262.4c0-153.6-124.8-278.4-278.4-278.4s-275.2 124.8-275.2 278.4 124.8 278.4 278.4 278.4c150.4 0 275.2-124.8 275.2-278.4zM659.2 460.8h67.2v-265.6h-67.2zM659.2 131.2h67.2v-67.2h-67.2v67.2z" />
<glyph unicode="&#xe901;" glyph-name="paid" d="M691.2 579.2v0l-3.2 54.4c0 3.2 0 3.2 0 6.4v6.4c-6.4 44.8-41.6 83.2-102.4 112-64 28.8-147.2 44.8-233.6 44.8s-169.6-16-230.4-44.8c-64-28.8-102.4-70.4-102.4-118.4v0c0-3.2 0-3.2 0-6.4v-406.4c0-48 38.4-92.8 105.6-124.8 60.8-28.8 144-44.8 230.4-44.8 32 0 64 3.2 96 6.4 60.8-73.6 150.4-115.2 243.2-115.2 172.8-3.2 313.6 140.8 313.6 313.6-3.2 176-140.8 316.8-316.8 316.8v0zM355.2 768c80 0 160-16 214.4-41.6 51.2-25.6 83.2-57.6 83.2-89.6v-3.2c0-22.4-16-48-41.6-64-38.4-9.6-70.4-25.6-102.4-48-48-12.8-102.4-19.2-156.8-19.2-83.2 0-163.2 16-217.6 41.6-48 25.6-80 54.4-83.2 83.2v9.6c0 3.2 0 3.2 0 3.2 3.2 32 32 64 83.2 86.4 60.8 25.6 140.8 41.6 220.8 41.6zM384 329.6c-3.2-22.4-6.4-44.8-6.4-67.2 0-16 0-28.8 3.2-38.4-9.6 0-16 0-25.6 0-83.2 0-160 16-217.6 41.6-51.2 25.6-83.2 60.8-83.2 92.8v60.8c16-16 38.4-32 67.2-48 60.8-28.8 144-48 233.6-48 9.6 6.4 19.2 6.4 28.8 6.4v0zM355.2 364.8c-83.2 0-160 16-217.6 41.6-51.2 25.6-83.2 57.6-83.2 92.8v54.4c16-16 38.4-32 67.2-44.8 60.8-28.8 144-48 233.6-48 35.2 0 70.4 3.2 99.2 6.4-25.6-28.8-48-64-60.8-102.4-12.8 3.2-25.6 0-38.4 0v0zM54.4 278.4c16-16 38.4-32 67.2-44.8 60.8-28.8 144-48 233.6-48 9.6 0 22.4 0 32 0 6.4-32 19.2-60.8 38.4-89.6-25.6-3.2-48-3.2-70.4-3.2-83.2 0-163.2 16-217.6 41.6-51.2 25.6-83.2 57.6-83.2 92.8v51.2zM969.6 262.4c0-153.6-124.8-278.4-278.4-278.4s-275.2 124.8-275.2 278.4 124.8 278.4 278.4 278.4c150.4 0 275.2-124.8 275.2-278.4zM636.8 172.8l214.4 214.4 38.4-38.4-252.8-252.8-140.8 140.8 38.4 38.4z" />
<glyph unicode="&#xe902;" glyph-name="discharge-mortgage" d="M621.847 821.527h-454.284v-875.055h688.873v640.465l-234.589 234.589zM633.018 758.225l160.116-160.116h-160.116v160.116zM819.2-16.291h-614.4v800.582h390.982v-223.418h223.418v-577.164zM260.655 672.582h204.8v-37.236h-204.8zM260.655 598.109h279.273v-37.236h-279.273zM508.276 499.433l-214.109-223.418c-7.447-7.447-7.447-18.618 0-26.065s18.618-7.447 26.065 0l14.895 14.895v-225.28h372.364v225.28l14.895-14.895c3.724-3.724 9.309-5.585 13.033-5.585s9.309 1.862 13.033 5.585c7.447 7.447 7.447 18.618 0 26.065l-214.109 223.418c-7.447 7.447-18.618 7.447-26.065 0zM558.545 76.8h-74.473v148.945h74.473v-148.945zM670.255 300.218v-223.418h-74.473v186.182h-148.945v-186.182h-74.473v227.142l148.945 156.393 148.945-156.393v-3.724z" />
<glyph unicode="&#xe903;" glyph-name="occupation" d="M735.418 840.145l-223.418-223.418-223.418 223.418-242.036-242.036v-659.084h930.909v659.084l-242.036 242.036zM493.382-23.738h-409.6v606.953l204.8 204.8 204.8-204.8v-606.953zM940.218-23.738h-409.6v606.953l204.8 204.8 204.8-204.8v-606.953zM567.855 404.48h148.945v148.945h-148.945v-148.945zM605.091 516.189h74.473v-74.473h-74.473v74.473zM902.982 553.425h-148.945v-148.945h148.945v148.945zM865.745 441.716h-74.473v74.473h74.473v-74.473zM567.855 218.298h148.945v148.945h-148.945v-148.945zM605.091 330.007h74.473v-74.473h-74.473v74.473zM902.982 367.244h-148.945v-148.945h148.945v148.945zM865.745 255.535h-74.473v74.473h74.473v-74.473zM567.855 32.116h148.945v148.945h-148.945v-148.945zM605.091 143.825h74.473v-74.473h-74.473v74.473zM902.982 181.062h-148.945v-148.945h148.945v148.945zM865.745 69.353h-74.473v74.473h74.473v-74.473zM121.018 404.48h148.945v148.945h-148.945v-148.945zM158.255 516.189h74.473v-74.473h-74.473v74.473zM456.145 553.425h-148.945v-148.945h148.945v148.945zM418.909 441.716h-74.473v74.473h74.473v-74.473zM121.018 218.298h148.945v148.945h-148.945v-148.945zM158.255 330.007h74.473v-74.473h-74.473v74.473zM456.145 367.244h-148.945v-148.945h148.945v148.945zM418.909 255.535h-74.473v74.473h74.473v-74.473zM121.018 32.116h148.945v148.945h-148.945v-148.945zM158.255 143.825h74.473v-74.473h-74.473v74.473zM456.145 181.062h-148.945v-148.945h148.945v148.945zM418.909 69.353h-74.473v74.473h74.473v-74.473z" />
<glyph unicode="&#xe904;" glyph-name="rates" d="M921.6 393.309c0 227.142-182.458 409.6-409.6 409.6s-409.6-182.458-409.6-409.6 182.458-409.6 409.6-409.6 409.6 182.458 409.6 409.6zM958.836 393.309c0-247.622-199.215-446.836-446.836-446.836s-446.836 199.215-446.836 446.836 199.215 446.836 446.836 446.836 446.836-199.215 446.836-446.836zM545.513 726.575c-11.171 1.862-22.342 1.862-33.513 1.862l-1.862 37.236h1.862c13.033 0 26.065 0 37.236-1.862l-3.724-37.236zM407.738 711.68l-11.171 35.375c13.033 3.724 24.204 7.447 37.236 9.309l7.447-37.236c-11.171 0-22.342-3.724-33.513-7.447zM647.913 700.509c-11.171 5.585-22.342 9.309-33.513 13.033l11.171 33.513c13.033-3.724 24.204-9.309 37.236-13.033l-14.895-33.513zM314.647 663.273l-22.342 31.651c11.171 7.447 20.48 14.895 33.513 20.48l18.618-31.651c-11.171-5.585-20.48-13.033-29.789-20.48zM735.418 642.793l-27.927 22.342 22.342 29.789c11.171-7.447 20.48-14.895 29.789-24.204l-24.204-27.927zM240.175 588.8l-29.789 22.342c7.447 11.171 14.895 20.48 24.204 29.789l27.927-24.204c-7.447-9.309-14.895-16.756-22.342-27.927zM802.444 562.735c-5.585 9.309-13.033 20.48-18.618 29.789l29.789 22.342c7.447-11.171 14.895-20.48 20.48-33.513l-31.651-18.618zM193.629 495.709l-35.375 11.171c3.724 13.033 9.309 24.204 13.033 37.236l33.513-14.895-11.171-33.513zM839.68 464.058c-1.862 11.171-5.585 22.342-9.309 33.513l35.375 11.171c3.724-13.033 7.447-24.204 9.309-37.236l-35.375-7.447zM139.636 393.309c0 13.033 0 26.065 1.862 39.098l37.236-3.724c-1.862-11.171-1.862-22.342-1.862-33.513l-37.236-1.862zM882.502 354.211l-37.236 3.724c1.862 11.171 1.862 22.342 1.862 35.375l27.927 1.862h9.309c0-14.895 0-27.927-1.862-40.96zM158.255 277.876c-3.724 13.033-7.447 24.204-9.309 37.236l37.236 7.447c0-11.171 3.724-22.342 7.447-33.513l-35.375-11.171zM852.713 242.502l-33.513 14.895c5.585 11.171 9.309 22.342 13.033 33.513l35.375-11.171c-5.585-13.033-9.309-26.065-14.895-37.236zM210.385 173.615c-7.447 11.171-14.895 20.48-20.48 33.513l31.651 18.618c5.585-9.309 13.033-20.48 18.618-29.789l-29.789-22.342zM789.411 143.825l-27.927 26.065 22.342 27.927 29.789-22.342c-7.447-11.171-16.756-22.342-24.204-31.651zM294.167 91.695c-11.171 7.447-20.48 14.895-29.789 24.204l24.204 27.927 27.927-22.342-22.342-29.789zM698.182 71.215l-18.618 31.651c9.309 5.585 20.48 13.033 29.789 18.618l22.342-29.789c-11.171-7.447-22.342-14.895-33.513-20.48zM396.567 39.564c-13.033 3.724-24.204 9.309-37.236 13.033l14.895 33.513c11.171-5.585 22.342-9.309 33.513-13.033l-11.171-33.513zM590.196 28.393l-7.447 37.236c11.171 1.862 22.342 5.585 33.513 9.309l11.171-35.375c-13.033-3.724-24.204-7.447-37.236-11.171zM512 20.945c-13.033 0-26.065 0-39.098 1.862l3.724 37.236c11.171-1.862 22.342-1.862 35.375-1.862v-37.236zM616.262 242.502c14.895 0 26.065 7.447 29.789 18.618 1.862 5.585 1.862 13.033 1.862 48.407s-1.862 42.822-1.862 48.407c-3.724 13.033-14.895 18.618-29.789 18.618s-26.065-7.447-29.789-18.618c-1.862-5.585-1.862-13.033-1.862-48.407s1.862-42.822 1.862-48.407c3.724-13.033 14.895-18.618 29.789-18.618zM547.375 309.527c0 40.96 1.862 46.545 3.724 57.716 9.309 26.065 31.651 42.822 63.302 42.822s55.855-16.756 63.302-42.822c3.724-11.171 3.724-16.756 3.724-57.716s-1.862-46.545-3.724-57.716c-9.309-26.065-31.651-42.822-63.302-42.822s-55.855 16.756-63.302 42.822c-1.862 11.171-3.724 16.756-3.724 57.716zM601.367 594.385c1.862 3.724 3.724 5.585 9.309 5.585h26.065c3.724 0 3.724-1.862 3.724-5.585l-221.556-379.811c-1.862-3.724-3.724-5.585-7.447-5.585h-26.065c-3.724 0-5.585 3.724-3.724 5.585l219.695 379.811zM433.804 451.025c1.862 5.585 3.724 13.033 3.724 48.407s-1.862 42.822-3.724 48.407-14.895 18.618-29.789 18.618-26.065-7.447-29.789-18.618c-1.862-5.585-1.862-13.033-1.862-48.407s1.862-42.822 1.862-48.407c3.724-13.033 14.895-18.618 29.789-18.618 13.033-1.862 24.204 5.585 29.789 18.618zM338.851 441.716c-3.724 11.171-3.724 16.756-3.724 55.855 0 40.96 1.862 46.545 3.724 57.716 9.309 26.065 31.651 42.822 63.302 42.822s55.855-16.756 63.302-42.822c3.724-11.171 3.724-16.756 3.724-57.716s-1.862-46.545-3.724-57.716c-9.309-26.065-31.651-42.822-63.302-42.822-29.789 1.862-53.993 18.618-63.302 44.684z" />
<glyph unicode="&#xe905;" glyph-name="water-rates" d="M880.64 343.040c-57.716 57.716-132.189 87.505-214.109 87.505h-14.895c-22.342 29.789-55.855 53.993-93.091 65.164v139.636h-37.236v-132.189c-5.585 0-13.033 1.862-18.618 1.862s-13.033 0-18.618-1.862v132.189h-37.236v-139.636c-37.236-11.171-68.887-35.375-93.091-65.164h-167.564v130.327c0 11.171-7.447 18.618-18.618 18.618h-111.709c-11.171 0-18.618-7.447-18.618-18.618v-484.073c0-11.171 7.447-18.618 18.618-18.618h111.709c11.171 0 18.618 7.447 18.618 18.618v130.327h167.564c33.513-44.684 87.505-74.473 148.945-74.473s115.433 29.789 148.945 74.473h14.895c20.48 0 40.96-7.447 55.855-22.342s22.342-33.513 22.342-55.855v-145.222c0-11.171 7.447-18.618 18.618-18.618h186.182c11.171 0 18.618 7.447 18.618 18.618v145.222c0 80.058-31.651 156.393-87.505 214.109zM148.945 95.418h-74.473v446.836h74.473v-446.836zM186.182 244.364v148.945h145.222c-9.309-22.342-14.895-48.407-14.895-74.473s5.585-52.131 14.895-74.473h-145.222zM502.691 169.891c-81.92 0-148.945 67.025-148.945 148.945s67.025 148.945 148.945 148.945 148.945-67.025 148.945-148.945-67.025-148.945-148.945-148.945zM930.909 2.327h-148.945v126.604c0 31.651-11.171 59.578-33.513 81.92-20.48 20.48-46.545 31.651-74.473 33.513 9.309 22.342 14.895 48.407 14.895 74.473s-5.585 52.131-14.895 74.473c68.887-1.862 132.189-27.927 180.596-76.335 50.269-50.269 78.196-115.433 78.196-186.182v-128.465zM562.269 274.153c-14.895-18.618-35.375-29.789-59.578-29.789s-44.684 11.171-59.578 29.789c-5.585 7.447-18.618 9.309-26.065 3.724s-9.309-18.618-3.724-26.065c22.342-27.927 53.993-44.684 89.367-44.684s67.025 16.756 89.367 44.684c5.585 7.447 3.724 20.48-3.724 26.065-9.309 5.585-20.48 3.724-26.065-3.724zM279.273 614.865c22.342 0 44.684 7.447 61.44 22.342 7.447 7.447 20.48 14.895 35.375 14.895h253.207c14.895 0 27.927-7.447 35.375-14.895 16.756-14.895 39.098-22.342 61.44-22.342 29.789 0 55.855 13.033 74.473 35.375s24.204 52.131 18.618 81.92c-7.447 33.513-35.375 61.44-68.887 70.749-29.789 7.447-61.44 0-83.782-18.618-9.309-7.447-22.342-14.895-37.236-14.895h-70.749v33.513c0 11.171-7.447 18.618-18.618 18.618h-74.473c-11.171 0-18.618-7.447-18.618-18.618v-35.375h-68.887c-16.756 0-29.789 7.447-37.236 14.895-24.204 18.618-53.993 26.065-83.782 18.618-33.513-9.309-61.44-35.375-68.887-70.749-7.447-29.789 0-59.578 18.618-81.92 16.756-20.48 42.822-33.513 72.611-33.513zM484.073 784.291h37.236v-16.756h-37.236v16.756zM227.142 722.851c3.724 18.618 20.48 33.513 37.236 39.098 16.756 3.724 33.513 0 46.545-11.171 20.48-16.756 42.822-26.065 65.164-26.065h249.484c22.342 0 44.684 9.309 65.164 26.065 13.033 11.171 29.789 14.895 46.545 11.171 18.618-3.724 33.513-20.48 37.236-39.098 3.724-16.756 0-33.513-9.309-46.545-18.618-22.342-53.993-26.065-76.335-7.447-18.618 16.756-40.96 24.204-63.302 24.204h-249.484c-22.342 0-42.822-9.309-63.302-24.204-22.342-18.618-57.716-14.895-76.335 7.447-9.309 13.033-13.033 29.789-9.309 46.545z" />
<glyph unicode="&#xe906;" glyph-name="water-usage" d="M763.345 845.731v-37.236h167.564v-111.709h-74.473v-37.236h74.473v-111.709h-74.473v-37.236h74.473v-111.709h-167.564v-37.236h167.564v-111.709h-74.473v-37.236h74.473v-111.709h-74.473v-37.236h74.473v-111.709h-167.564v-37.236h204.8v930.909zM368.64 832.698c-11.171-14.895-312.785-381.673-312.785-592.058 0-180.596 147.084-327.68 327.68-327.68s327.68 147.084 327.68 327.68c0 210.385-301.615 577.164-312.785 592.058-7.447 9.309-22.342 9.309-29.789 0zM383.535-49.804c-160.116 0-290.444 130.327-290.444 290.444 0 171.287 230.865 474.764 290.444 551.098 61.44-76.335 290.444-379.811 290.444-551.098 0-160.116-130.327-290.444-290.444-290.444zM357.469 629.76c-7.447-11.171-182.458-240.175-182.458-385.396 0-199.215 184.32-229.004 186.182-229.004h1.862c9.309 0 16.756 7.447 18.618 16.756s-5.585 20.48-14.895 20.48c-5.585 0-152.669 24.204-152.669 191.767 0 134.051 175.011 359.331 176.873 363.055 5.585 7.447 5.585 20.48-3.724 26.065-11.171 5.585-22.342 3.724-29.789-3.724z" />
<glyph unicode="&#xe907;" glyph-name="increased-revenue" d="M897.373 691.81c0 18.236-18.519 23.552-32.942 26.777v-53.030c16.079 1.089 32.942 8.628 32.942 26.254zM848.351 804.82c-18.214-0.523-30.023-11.264-30.023-22.768 0-13.399 9.979-21.155 30.045-25.164l-0.022 47.932zM855.868 572.089c89.328 0 161.966 72.66 161.966 161.945s-72.66 161.966-161.966 161.966c-89.349 0-162.010-72.66-162.010-161.966 0-89.284 72.66-161.945 162.010-161.945zM784.645 775.909c0 36.385 30.262 55.187 63.728 56.233v14.249c0 4.597 3.464 9.129 7.996 9.129 4.575 0 8.061-4.532 8.061-9.129v-14.249c20.85-0.545 63.749-13.639 63.749-39.936 0-10.436-7.8-16.58-16.885-16.58-17.452 0-17.168 28.65-46.843 29.195v-50.895c35.382-7.495 66.669-17.953 66.669-59.196 0-35.862-26.777-54.098-66.669-56.516v-16.558c0-4.575-3.486-9.129-8.061-9.129-4.532 0-7.996 4.554-7.996 9.129v16.558c-45.252 1.111-67.737 28.149-67.737 49.326 0 10.676 6.449 16.863 16.58 16.863 30.001 0 6.689-36.951 51.178-38.847v55.993c-39.718 7.233-63.771 24.62-63.771 54.359zM203.82 174.559h-139.634c-25.709 0-46.538-20.85-46.538-46.559v-209.441c0.022-25.753 20.872-46.559 46.538-46.559h139.634c25.709 0 46.538 20.807 46.538 46.559v209.441c0.022 25.709-20.807 46.559-46.538 46.559zM564.703 337.441h-139.634c-25.709 0-46.538-20.85-46.538-46.559v-372.366c0-25.753 20.85-46.559 46.538-46.559h139.634c25.709 0 46.559 20.807 46.559 46.559v372.431c0 25.644-20.829 46.494-46.559 46.494zM925.652 523.634h-139.613c-25.731 0-46.559-20.85-46.559-46.538v-558.538c0-25.753 20.85-46.559 46.559-46.559h139.613c25.731 0 46.559 20.807 46.559 46.559v558.516c0.022 25.709-20.829 46.559-46.559 46.559zM646.536 656.95l-115.581 24.162c-8.846 1.83-17.953-1.59-23.378-8.802-5.425-7.233-6.166-16.929-1.917-24.925l25.622-48.172-512.479-264.345c-11.417-5.904-15.905-19.957-10-31.33 4.14-7.996 12.266-12.593 20.698-12.593 3.595 0 7.233 0.806 10.654 2.593l512.959 264.606 23.508-44.185c4.052-7.626 11.961-12.353 20.545-12.353 0.392 0 0.763 0.022 1.177 0.044 9.020 0.458 16.972 6.079 20.371 14.445l44.642 109.328c2.614 6.405 2.266 13.617-1.002 19.717-3.29 6.035-9.063 10.371-15.818 11.809z" />
<glyph unicode="&#xe908;" glyph-name="house-value" horiz-adv-x="1113" d="M978.851 512.223v225.66h-150.087v-90.080l-273.073 248.196-555.691-501.989h128.359v-518.301h855.495v518.301h129.19l-134.193 118.212zM661.963 119.017c-18.155-16.057-40.679-27.111-66.944-32.837l0.435-58.394-81.247-0.204-0.38 58.389c-24.409 5.592-42.039 17.104-63.056 34.427-27.946 23.981-42.515 52-43.445 83.397l-0.015 0.533 1.976 25.187 78.265 0.284 0.575-15.4c0.325-20.787 6.389-35.882 18.536-46.368 12.197-10.914 22.718-16.396 46.747-16.396 23.659 0.189 42.024 5.891 54.522 16.944 12.002 10.54 17.825 25.257 17.825 45.022 0 15.694-5.318 27.196-16.75 36.191-13.038 10.187-36.511 19.297-69.73 27.051-40.298 9.339-71.201 23.842-91.853 43.104-22.023 20.817-33.254 47.006-33.434 77.885-0.23 35.379 13.623 64.822 41.169 87.508 16.139 13.366 35.090 22.76 56.418 27.993l-0.39 51.083 81.217 0.558 0.215-49.338c23.834-4.65 39.413-14.223 57.138-28.606 26.47-22.058 40.859-52.249 42.86-89.821l0.575-16.466-78.61-0.488-2.161 13.356c-2.652 19.7-8.93 33.874-18.701 42.421-10.346 9.035-17.585 12.798-35.581 12.798h-1.146c-20.677 0-37.212-4.789-47.918-13.894-10.366-8.637-15.104-20.089-14.969-36.122 0-13.446 4.518-23.642 13.823-31.263 7.524-6.314 23.684-15.409 58.484-23.368 45.171-10.575 79.736-26.364 102.779-46.936 24.244-21.848 36.521-49.503 36.521-82.215 0.24-38.783-14.483-71.107-43.75-96.015z" />
<glyph unicode="&#xe909;" glyph-name="calendar" d="M320 512h128v-128h-128zM512 512h128v-128h-128zM704 512h128v-128h-128zM128 128h128v-128h-128zM320 128h128v-128h-128zM512 128h128v-128h-128zM320 320h128v-128h-128zM512 320h128v-128h-128zM704 320h128v-128h-128zM128 320h128v-128h-128zM832 896v-64h-128v64h-448v-64h-128v64h-128v-1024h960v1024h-128zM896-64h-832v704h832v-704z" />
<glyph unicode="&#xe90a;" glyph-name="add-menu" d="M521.6 646.4h-48v-236.8h-240v-51.2h240v-236.8h48v236.8h240v51.2h-240zM499.2 806.4c-233.6 0-425.6-188.8-425.6-422.4s188.8-422.4 422.4-422.4 425.6 188.8 425.6 422.4c0 233.6-188.8 422.4-422.4 422.4zM873.6 384c0-204.8-166.4-374.4-374.4-374.4s-374.4 169.6-374.4 374.4c0 204.8 166.4 374.4 374.4 374.4s374.4-169.6 374.4-374.4z" />
<glyph unicode="&#xe90b;" glyph-name="sas-item-01" d="M928 54.4h-835.52v609.92h835.52zM132.16 94.080h756.48v530.56h-756.48zM229.44 246.72v39.36c3.635-3.26 7.731-6.131 12.148-8.479l0.332-0.161c4.373-2.429 9.461-4.602 14.782-6.246l0.578-0.154c4.606-1.598 10.203-3.042 15.948-4.058l0.692-0.102c4.473-0.922 9.657-1.5 14.959-1.599l0.081-0.001c1.169-0.073 2.534-0.114 3.91-0.114 11.704 0 22.705 3.006 32.275 8.289l-0.345-0.174c7.196 4.757 11.877 12.812 11.877 21.96 0 0.492-0.014 0.982-0.040 1.467l0.003-0.068c0.004 0.162 0.006 0.354 0.006 0.545 0 5.118-1.43 9.901-3.913 13.973l0.067-0.118c-3.115 4.265-6.822 7.871-11.047 10.78l-0.153 0.1c-4.667 3.153-10.114 6.345-15.761 9.197l-0.879 0.403-20.48 9.6-21.76 10.88c-6.595 4.414-12.351 9.153-17.6 14.4v0c-4.81 4.98-8.788 10.802-11.685 17.217l-0.155 0.383c-2.636 6.612-4.164 14.275-4.164 22.295 0 0.262 0.002 0.524 0.005 0.785v-0.040c-0.004 0.245-0.006 0.535-0.006 0.825 0 10.070 2.736 19.5 7.505 27.589l-0.139-0.254c4.958 7.915 11.388 14.448 18.96 19.374l0.24 0.146c7.76 5.309 16.878 9.307 26.694 11.428l0.506 0.092c9.345 2.441 20.073 3.843 31.129 3.843 0.306 0 0.612-0.001 0.918-0.003h-0.047c2.321 0.153 5.033 0.241 7.764 0.241 16.075 0 31.444-3.024 45.569-8.534l-0.854 0.293v-37.76c-13.187 8.863-29.424 14.146-46.894 14.146-1.177 0-2.348-0.024-3.513-0.071l0.167 0.005c-6.025-0.045-11.884-0.625-17.57-1.695l0.61 0.095c-5.658-1.068-10.7-2.958-15.281-5.567l0.241 0.127c-4.44-2.173-8.104-5.325-10.82-9.19l-0.060-0.090c-2.612-3.685-4.176-8.274-4.176-13.228 0-0.3 0.006-0.598 0.017-0.895l-0.001 0.043c-0.009-0.255-0.014-0.555-0.014-0.857 0-4.614 1.191-8.95 3.282-12.718l-0.068 0.134c2.428-4.070 5.529-7.477 9.186-10.174l0.094-0.066c4.288-3.026 9.21-6.003 14.339-8.633l0.701-0.327 20.8-9.6c8-4.16 15.36-8.64 22.72-13.12 7.032-4.503 13.122-9.575 18.513-15.31l0.047-0.050c5.317-5.23 9.718-11.371 12.954-18.173l0.166-0.387c2.848-6.984 4.501-15.088 4.501-23.577 0-10.67-2.611-20.73-7.229-29.576l0.168 0.353c-4.659-8.048-11.029-14.623-18.649-19.385l-0.231-0.135c-7.904-4.967-17.123-8.741-26.976-10.786l-0.544-0.094c-9.504-2.035-20.424-3.2-31.616-3.2-0.135 0-0.27 0-0.405 0.001h0.021c-2.152-0.133-4.667-0.209-7.2-0.209s-5.048 0.076-7.543 0.226l0.343-0.016-17.28 2.56-16.64 4.16c-5.376 2.054-10.025 4.642-14.231 7.788l0.151-0.108zM608 237.76h-41.92l-20.48 58.56h-90.56l-20.16-58.56h-41.6l86.72 230.080h43.2zM535.36 327.36l-32 91.84c-1.172 4.024-2.182 8.902-2.827 13.894l-0.053 0.506c-0.932-5.703-2.045-10.561-3.425-15.305l0.225 0.905-32-91.84zM629.12 246.72v39.36c3.701-3.337 7.911-6.217 12.475-8.493l0.325-0.147c4.373-2.429 9.461-4.602 14.782-6.246l0.578-0.154c4.576-1.65 10.065-3.094 15.713-4.073l0.607-0.087c4.462-0.906 9.645-1.483 14.941-1.598l0.099-0.002c1.234-0.082 2.675-0.129 4.127-0.129 11.632 0 22.561 3.013 32.048 8.301l-0.335-0.171c7.196 4.757 11.877 12.812 11.877 21.96 0 0.492-0.014 0.982-0.040 1.467l0.003-0.068c0.004 0.162 0.006 0.354 0.006 0.545 0 5.118-1.43 9.901-3.913 13.973l0.067-0.118c-3.003 4.271-6.609 7.877-10.741 10.787l-0.139 0.093c-4.667 3.153-10.114 6.345-15.761 9.197l-0.879 0.403-20.48 9.6c-8 4.16-15.040 8.32-21.76 12.48-6.673 4.215-12.447 8.973-17.563 14.361l-0.037 0.039c-4.922 4.916-8.918 10.757-11.703 17.242l-0.137 0.358c-2.649 6.283-4.189 13.587-4.189 21.25 0 0.629 0.010 1.256 0.031 1.881l-0.002-0.091c-0.012 0.43-0.019 0.937-0.019 1.445 0 9.824 2.62 19.037 7.198 26.977l-0.139-0.262c5.162 7.845 11.675 14.358 19.269 19.365l0.251 0.155c7.76 5.309 16.878 9.307 26.694 11.428l0.506 0.092c9.345 2.441 20.073 3.843 31.129 3.843 0.306 0 0.612-0.001 0.918-0.003h-0.047c2.286 0.146 4.957 0.229 7.647 0.229 16.225 0 31.745-3.019 46.028-8.525l-0.875 0.297v-37.76c-13.284 8.865-29.617 14.146-47.184 14.146-1.187 0-2.369-0.024-3.545-0.072l0.169 0.005c-6.036-0.062-11.894-0.642-17.585-1.696l0.625 0.096c-5.673-1.193-10.701-3.072-15.335-5.587l0.295 0.147c-4.361-2.305-7.996-5.429-10.82-9.197l-0.060-0.083c-2.612-3.685-4.176-8.274-4.176-13.228 0-0.3 0.006-0.598 0.017-0.895l-0.001 0.043c-0.009-0.255-0.014-0.555-0.014-0.857 0-4.614 1.191-8.95 3.282-12.718l-0.068 0.134c2.628-3.936 5.697-7.31 9.199-10.175l0.081-0.065c4.411-3.127 9.444-6.109 14.717-8.677l0.643-0.283 20.48-9.6c8-4.16 15.68-8.64 22.72-13.12 7.149-4.518 13.341-9.591 18.848-15.326l0.032-0.034c5.23-5.22 9.532-11.366 12.641-18.172l0.159-0.388c3.037-6.483 4.809-14.077 4.809-22.085 0-0.336-0.003-0.671-0.009-1.005l0.001 0.050c0.008-0.374 0.013-0.815 0.013-1.257 0-10.426-2.61-20.242-7.213-28.83l0.16 0.327c-4.867-7.983-11.317-14.536-18.959-19.377l-0.241-0.143c-7.895-5.021-17.123-8.802-27-10.792l-0.52-0.088c-9.447-2.035-20.299-3.201-31.424-3.201-0.203 0-0.405 0-0.607 0.001h0.031c-2.105-0.136-4.563-0.214-7.040-0.214s-4.935 0.078-7.374 0.23l0.334-0.017-17.28 2.56c-5.76 0-11.52 2.56-16.64 4.16-5.581 1.422-10.483 3.507-14.965 6.217l0.245-0.137z" />
<glyph unicode="&#xe90c;" glyph-name="browse" d="M85.333-42.667h682.667v-85.333h-768v682.667h85.333v-597.333zM170.667 896h853.333v-853.333h-853.333v853.333zM256 725.333v-597.333h682.667v597.333h-682.667z" />
<glyph unicode="&#xe90d;" glyph-name="business" d="M512 597.333v170.667h-426.667v-768h853.333v597.333h-426.667zM256 85.333h-85.333v85.333h85.333v-85.333zM256 256h-85.333v85.333h85.333v-85.333zM256 426.667h-85.333v85.333h85.333v-85.333zM256 597.333h-85.333v85.333h85.333v-85.333zM426.667 85.333h-85.333v85.333h85.333v-85.333zM426.667 256h-85.333v85.333h85.333v-85.333zM426.667 426.667h-85.333v85.333h85.333v-85.333zM426.667 597.333h-85.333v85.333h85.333v-85.333zM853.333 85.333h-341.333v85.333h85.333v85.333h-85.333v85.333h85.333v85.333h-85.333v85.333h341.333v-426.667zM768 426.667h-85.333v-85.333h85.333v85.333zM768 256h-85.333v-85.333h85.333v85.333z" />
<glyph unicode="&#xe90e;" glyph-name="city" d="M640 426.667v256l-128 128-128-128v-85.333h-256v-597.333h768v426.667h-256zM298.667 85.333h-85.333v85.333h85.333v-85.333zM298.667 256h-85.333v85.333h85.333v-85.333zM298.667 426.667h-85.333v85.333h85.333v-85.333zM554.667 85.333h-85.333v85.333h85.333v-85.333zM554.667 256h-85.333v85.333h85.333v-85.333zM554.667 426.667h-85.333v85.333h85.333v-85.333zM554.667 597.333h-85.333v85.333h85.333v-85.333zM810.667 85.333h-85.333v85.333h85.333v-85.333zM810.667 256h-85.333v85.333h85.333v-85.333z" />
<glyph unicode="&#xe90f;" glyph-name="user" d="M748.55 144.031v0c57.335-26.56 135.867-62.926 137.711-168.744l0.31-17.954h-758.571v17.636c0 131.108 119.822 171.443 177.416 190.825l6.704 2.257c51.2 17.46 91.612 31.269 91.612 106.735 0 77.917-61.454 126.541-62.074 126.999l-3.619 3.792c-1.206 1.728-28.090 41.093-4.774 98.746-9.513 24.885-35.776 105.924-6.824 179.714 17.923 45.696 53.388 79.663 105.364 100.95 0.793 0.459 50.717 25.678 106.898 25.678 47.391 0 109.741-18.165 138.951-104.231 11.529-16.102 65.865-100.368 20.973-202.218 6.876-16.419 16.975-52.856-3.671-96.083l-1.792-3.721-3.223-2.54c-0.569-0.459-62.177-50.14-62.177-127.087 0-61.445 15.786-70.792 50.373-91.233 8.668-5.132 18.078-10.688 28.125-17.548 10.891-7.425 26.143-14.479 42.29-21.975v0z" />
<glyph unicode="&#xe910;" glyph-name="users" d="M329.757 85.333h-287.091v15.873c0 117.998 107.84 154.298 159.674 171.742l6.033 2.032c46.080 15.714 82.451 28.142 82.451 96.062 0 70.126-55.308 113.887-55.867 114.299l-3.257 3.413c-1.086 1.556-25.281 36.983-4.296 88.871-8.561 22.396-32.199 95.331-6.142 161.743 16.13 41.126 48.050 71.697 94.827 90.855 0.713 0.413 45.646 23.111 96.208 23.111 42.652 0 98.767-16.349 125.056-93.808 4.865-6.794 18.198-27.074 26.826-56.147-2.99-1.435-5.751-2.887-8.261-4.339-57.189-23.422-97.821-62.349-118.377-114.76-23.363-59.547-17.941-121.977 0.772-177.944 1.646-4.923-8.938-44.684-2.626-72.221 2.306-10.060 5.582-19.168 9.484-27.28 2.655-5.519 5.251-9.887 7.542-13.168l1.868-2.677 8.054-8.439c0 0 2.363-1.769 2.752-2.11 1.259-1.104 2.741-2.488 4.386-4.13 4.884-4.877 9.832-10.657 14.428-17.191 12.626-17.95 19.956-37.667 19.956-58.745 0-34.77-4.624-38.992-53.555-55.678l-5.879-1.979c-50.209-16.897-79.799-29.992-111.851-54.919-1.048-0.815-2.087-1.637-3.116-2.465v0zM857.162 82.695v0c51.601-23.904 122.28-56.634 123.939-151.87l0.279-16.158h-682.714v15.873c0 117.998 107.84 154.298 159.674 171.742l6.033 2.032c46.080 15.714 82.451 28.142 82.451 96.062 0 70.126-55.308 113.887-55.867 114.299l-3.257 3.413c-1.086 1.556-25.281 36.983-4.296 88.871-8.561 22.396-32.199 95.331-6.142 161.743 16.13 41.126 48.050 71.697 94.827 90.855 0.713 0.413 45.646 23.111 96.208 23.111 42.652 0 98.767-16.349 125.056-93.808 10.376-14.492 59.279-90.331 18.876-181.996 6.188-14.777 15.277-47.57-3.304-86.474l-1.613-3.349-2.9-2.286c-0.512-0.413-55.96-45.126-55.96-114.379 0-55.3 14.207-63.713 45.335-82.109 7.801-4.619 16.27-9.619 25.312-15.793 9.802-6.682 23.528-13.031 38.061-19.777v0z" />
<glyph unicode="&#xf100;" glyph-name="ios-add-circle-outline" d="M416 800c230 0 416-186 416-416s-186-416-416-416-416 186-416 416 186 416 416 416zM416 2c210 0 382 172 382 382s-172 382-382 382-382-172-382-382 172-382 382-382zM432 640v-240h240v-32h-240v-240h-32v240h-240v32h240v240h32z" />
<glyph unicode="&#xf101;" glyph-name="ios-add-circle" d="M416 800c230 0 416-186 416-416s-186-416-416-416-416 186-416 416 186 416 416 416zM672 368v32h-240v240h-32v-240h-240v-32h240v-240h32v240h240z" />
<glyph unicode="&#xf102;" glyph-name="ios-add" horiz-adv-x="512" d="M512 368h-240v-240h-32v240h-240v32h240v240h32v-240h240v-32z" />
<glyph unicode="&#xf103;" glyph-name="ios-alert-outline" d="M416 800c230 0 416-186 416-416s-186-416-416-416-416 186-416 416 186 416 416 416zM416 2c210 0 382 172 382 382s-172 382-382 382-382-172-382-382 172-382 382-382zM416 230c18 0 32-14 32-32s-14-32-32-32-32 14-32 32 14 32 32 32zM392 430v178h48v-178l-12-142h-24z" />
<glyph unicode="&#xf104;" glyph-name="ios-alert" d="M416 800c230 0 416-186 416-416s-186-416-416-416-416 186-416 416 186 416 416 416zM392 608v-178l12-142h24l12 142v178h-48zM416 166c18 0 32 14 32 32s-14 32-32 32-32-14-32-32 14-32 32-32z" />
<glyph unicode="&#xf105;" glyph-name="ios-american-football-outline" d="M662 630c224-224 162-654 162-654s-52-8-130-8c-146 0-378 24-524 170-224 224-162 654-162 654s52 8 130 8c146 0 378-24 524-170zM34 766c-4-38-10-120 0-214 2-16 4-32 6-46l254 254c-50 6-102 10-156 10v0 0c-44 0-82-2-104-4zM192 160c60-60 144-106 248-132 20-6 40-10 62-14l284 284c-8 44-20 88-34 126-28 74-64 136-112 184-60 60-144 106-248 132-20 6-40 10-62 14l-284-284c8-44 20-88 34-126 28-74 64-136 112-184zM798 2c4 38 10 120 0 214-2 16-4 32-6 46l-254-254c50-6 102-10 156-10 44 0 82 2 104 4zM518 260l-56-58-24 24 58 56-46 46-56-58-24 24 58 56-46 46-56-58-24 24 58 56-46 46-56-58-24 24 58 56-44 46-58-58-22 24 134 134 24-22-58-58 46-44 56 58 24-24-58-56 46-46 56 58 24-24-58-56 46-46 56 58 24-24-58-56 44-46 58 58 24-24-58-56 44-46 58 58 22-24-134-134-24 22 58 58z" />
<glyph unicode="&#xf106;" glyph-name="ios-american-football" d="M662 630c224-224 162-654 162-654s-52-8-130-8c-146 0-378 24-524 170-224 224-162 654-162 654s52 8 130 8c146 0 378-24 524-170zM40 506l6-36 284 284-36 6zM438 226l24-24 56 58 46-44-58-58 24-22 134 134-22 24-58-58-44 46 58 56-24 24-56-58-46 46 58 56-24 24-56-58-46 46 58 56-24 24-56-58-46 46 58 56-24 24-56-58-46 44 58 58-24 22-134-134 22-24 58 58 44-46-58-56 24-24 56 58 46-46-58-56 24-24 56 58 46-46-58-56 24-24 56 58 46-46zM538 8l254 254-6 36-284-284z" />
<glyph unicode="&#xf107;" glyph-name="ios-aperture-outline" d="M416 800c230 0 416-186 416-416s-186-416-416-416c-92 0-178 30-246 80l-16 10 2 2c-94 76-156 192-156 324 0 230 186 416 416 416zM770 534c-20 46-46 86-82 122-8 8-18 16-26 24l-190-328h326c0 10 2 22 2 32 0 52-10 102-30 150zM378 382l18-30h40l18 32-18 32h-38zM566 738c-48 20-98 30-150 30-46 0-92-8-134-24l190-328 164 282c-22 16-46 30-70 40zM144 656c-36-36-62-76-82-122-12-28-20-56-24-86h378l-164 284c-40-18-76-44-108-76zM144 112c8-8 18-16 28-24l188 328h-326c0-10-2-22-2-32 0-52 10-102 30-150 20-46 46-86 82-122zM266 30c48-20 98-30 150-30 46 0 90 8 132 24l-188 326-162-282c22-16 44-28 68-38zM688 112c36 36 62 76 82 122 12 28 20 56 24 86h-380l164-284c40 20 78 44 110 76z" />
<glyph unicode="&#xf108;" glyph-name="ios-aperture" d="M398 416h38l18-32-18-32h-40l-18 30zM416 800c230 0 416-186 416-416s-186-416-416-416-416 186-416 416 186 416 416 416zM414 320h380c2 10 4 22 4 32h-326l190 328c-8 6-18 12-26 18l-164-282-190 328c-6-2-10-4-16-6-4-2-10-4-14-6l164-284h-378c-2-10-4-22-4-32h328l-190-328c8-6 18-14 26-20l162 282 188-326 18 6 12 6z" />
<glyph unicode="&#xf109;" glyph-name="ios-apps-outline" horiz-adv-x="704" d="M148 736h-104c-6 0-12-6-12-12v-104c0-6 6-12 12-12h104c6 0 12 6 12 12v104c0 6-6 12-12 12zM148 768v0c24 0 44-20 44-44v-104c0-24-20-44-44-44h-104c-24 0-44 20-44 44v104c0 24 20 44 44 44h104zM404 736h-104c-6 0-12-6-12-12v-104c0-6 6-12 12-12h104c6 0 12 6 12 12v104c0 6-6 12-12 12zM404 768v0c24 0 44-20 44-44v-104c0-24-20-44-44-44h-104c-24 0-44 20-44 44v104c0 24 20 44 44 44h104zM660 736h-104c-6 0-12-6-12-12v-104c0-6 6-12 12-12h104c6 0 12 6 12 12v104c0 6-6 12-12 12zM660 768v0c24 0 44-20 44-44v-104c0-24-20-44-44-44h-104c-24 0-44 20-44 44v104c0 24 20 44 44 44h104zM148 448h-104c-6 0-12-6-12-12v-104c0-6 6-12 12-12h104c6 0 12 6 12 12v104c0 6-6 12-12 12zM148 480v0c24 0 44-20 44-44v-104c0-24-20-44-44-44h-104c-24 0-44 20-44 44v104c0 24 20 44 44 44h104zM404 448h-104c-6 0-12-6-12-12v-104c0-6 6-12 12-12h104c6 0 12 6 12 12v104c0 6-6 12-12 12zM404 480v0c24 0 44-20 44-44v-104c0-24-20-44-44-44h-104c-24 0-44 20-44 44v104c0 24 20 44 44 44h104zM660 448h-104c-6 0-12-6-12-12v-104c0-6 6-12 12-12h104c6 0 12 6 12 12v104c0 6-6 12-12 12zM660 480v0c24 0 44-20 44-44v-104c0-24-20-44-44-44h-104c-24 0-44 20-44 44v104c0 24 20 44 44 44h104zM148 160h-104c-6 0-12-6-12-12v-104c0-6 6-12 12-12h104c6 0 12 6 12 12v104c0 6-6 12-12 12zM148 192v0c24 0 44-20 44-44v-104c0-24-20-44-44-44h-104c-24 0-44 20-44 44v104c0 24 20 44 44 44h104zM404 160h-104c-6 0-12-6-12-12v-104c0-6 6-12 12-12h104c6 0 12 6 12 12v104c0 6-6 12-12 12zM404 192v0c24 0 44-20 44-44v-104c0-24-20-44-44-44h-104c-24 0-44 20-44 44v104c0 24 20 44 44 44h104zM660 160h-104c-6 0-12-6-12-12v-104c0-6 6-12 12-12h104c6 0 12 6 12 12v104c0 6-6 12-12 12zM660 192v0c24 0 44-20 44-44v-104c0-24-20-44-44-44h-104c-24 0-44 20-44 44v104c0 24 20 44 44 44h104z" />
<glyph unicode="&#xf10a;" glyph-name="ios-apps" horiz-adv-x="704" d="M148 576h-104c-24 0-44 20-44 44v104c0 24 20 44 44 44h104c24 0 44-20 44-44v-104c0-24-20-44-44-44zM404 576h-104c-24 0-44 20-44 44v104c0 24 20 44 44 44h104c24 0 44-20 44-44v-104c0-24-20-44-44-44zM660 576h-104c-24 0-44 20-44 44v104c0 24 20 44 44 44h104c24 0 44-20 44-44v-104c0-24-20-44-44-44zM148 288h-104c-24 0-44 20-44 44v104c0 24 20 44 44 44h104c24 0 44-20 44-44v-104c0-24-20-44-44-44zM404 288h-104c-24 0-44 20-44 44v104c0 24 20 44 44 44h104c24 0 44-20 44-44v-104c0-24-20-44-44-44zM660 288h-104c-24 0-44 20-44 44v104c0 24 20 44 44 44h104c24 0 44-20 44-44v-104c0-24-20-44-44-44zM148 0h-104c-24 0-44 20-44 44v104c0 24 20 44 44 44h104c24 0 44-20 44-44v-104c0-24-20-44-44-44zM404 0h-104c-24 0-44 20-44 44v104c0 24 20 44 44 44h104c24 0 44-20 44-44v-104c0-24-20-44-44-44zM660 0h-104c-24 0-44 20-44 44v104c0 24 20 44 44 44h104c24 0 44-20 44-44v-104c0-24-20-44-44-44z" />
<glyph unicode="&#xf10b;" glyph-name="ios-appstore-outline" d="M416 800c230 0 416-186 416-416s-186-416-416-416-416 186-416 416 186 416 416 416zM416 2c210 0 382 172 382 382s-172 382-382 382-382-172-382-382 172-382 382-382zM182 192l20 90 50-32zM588 300c36 16 56-6 60-36 4-28-4-64-14-72-16 34-36 26-54 50-22 30-6 52 8 58zM408 516l-60-100-36-64-50-88-50 30 34 58 36 64 74 130c4 6 10 8 16 4l32-18c6-4 8-10 4-16zM366 416h104l36-64h-178zM606 352l-36 64h102v-64h-66zM266 416l-36-64h-70v64h106zM554 416l18-34-48-30h-2l-36 64-102 182c-4 6-2 12 4 16l30 18c6 4 12 2 16-4zM590 352l16-28-50-30-24 46 20 12 28 18z" />
<glyph unicode="&#xf10c;" glyph-name="ios-appstore" d="M416 800c230 0 416-186 416-416s-186-416-416-416-416 186-416 416 186 416 416 416zM160 416v-64h70l36 64h-106zM182 192l70 58-50 32zM262 264l50 88 38 64 58 100c4 6 2 12-4 16l-32 18c-6 4-12 2-16-4l-74-130-36-64-34-58zM328 352h178l-36 64h-106zM524 352v0l48 30-18 34-120 212c-4 6-10 8-16 4l-30-18c-6-4-8-10-4-16l102-182 36-64h2zM532 340l24-46 50 30-16 28-10 18-28-18zM634 192c10 8 18 44 14 72-4 30-24 52-60 36-14-6-30-28-8-58 18-24 38-16 54-50zM672 352v64h-102l36-64h66z" />
<glyph unicode="&#xf10d;" glyph-name="ios-archive-outline" horiz-adv-x="640" d="M384 416c18 0 32-14 32-32s-14-32-32-32h-128c-18 0-32 14-32 32s14 32 32 32h126zM384 448v0c36 0 64-28 64-64s-28-64-64-64h-128c-36 0-64 28-64 64s28 64 64 64h128zM640 672v-160h-32v-416h-576v416h-32v160h640zM576 128v384h-512v-384h512zM608 544v96h-576v-96h576z" />
<glyph unicode="&#xf10e;" glyph-name="ios-archive" horiz-adv-x="640" d="M32 96v384h576v-384h-576zM256 416c-18 0-32-14-32-32s14-32 32-32h128c18 0 32 14 32 32s-14 32-32 32h-128zM0 672h640v-160h-640v160z" />
<glyph unicode="&#xf10f;" glyph-name="ios-arrow-dropdown-circle" d="M416 800c230 0 416-186 416-416s-186-416-416-416-416 186-416 416 186 416 416 416zM416 280l-186 200-26-28 212-228 212 228-26 28z" />
<glyph unicode="&#xf110;" glyph-name="ios-arrow-dropdown" d="M602 480l26-28-212-228-212 228 26 28 186-200zM416 800c230 0 416-186 416-416s-186-416-416-416-416 186-416 416 186 416 416 416zM416 766c-210 0-382-172-382-382s172-382 382-382 382 172 382 382-172 382-382 382z" />
<glyph unicode="&#xf111;" glyph-name="ios-arrow-dropleft-circle" d="M416 800c230 0 416-186 416-416s-186-416-416-416-416 186-416 416 186 416 416 416zM512 198l-200 186 200 186-28 26-228-212 228-212z" />
<glyph unicode="&#xf112;" glyph-name="ios-arrow-dropleft" d="M512 570l-200-186 200-186-28-26-228 212 228 212zM416 800c230 0 416-186 416-416s-186-416-416-416-416 186-416 416 186 416 416 416zM416 2c210 0 382 172 382 382s-172 382-382 382-382-172-382-382 172-382 382-382z" />
<glyph unicode="&#xf113;" glyph-name="ios-arrow-dropright-circle" d="M0 384c0 230 186 416 416 416s416-186 416-416-186-416-416-416-416 186-416 416zM520 384l-200-186 28-26 228 212-228 212-28-26z" />
<glyph unicode="&#xf114;" glyph-name="ios-arrow-dropright" d="M320 570l28 26 228-212-228-212-28 26 200 186zM0 384c0 230 186 416 416 416s416-186 416-416-186-416-416-416-416 186-416 416zM34 384c0-210 172-382 382-382s382 172 382 382-172 382-382 382-382-172-382-382z" />
<glyph unicode="&#xf115;" glyph-name="ios-arrow-dropup-circle" d="M416-32c-230 0-416 186-416 416s186 416 416 416 416-186 416-416-186-416-416-416zM416 488l186-200 26 28-212 228-212-228 26-28z" />
<glyph unicode="&#xf116;" glyph-name="ios-arrow-dropup" d="M230 288l-26 28 212 228 212-228-26-28-186 200zM416-32c-230 0-416 186-416 416s186 416 416 416 416-186 416-416-186-416-416-416zM416 2c210 0 382 172 382 382s-172 382-382 382-382-172-382-382 172-382 382-382z" />
<glyph unicode="&#xf117;" glyph-name="ios-arrow-round-back" horiz-adv-x="512" d="M496 400c8 0 16-8 16-16s-8-16-16-16h-442l134-148c6-6 6-18 0-24-4-4-8-4-12-4s-8 0-12 4l-160 176v2l-2 2v2h-2v12h2v2l2 2v2l160 176c6 6 18 6 24 0s6-18 0-24l-134-148h442z" />
<glyph unicode="&#xf118;" glyph-name="ios-arrow-round-down" horiz-adv-x="384" d="M176 624c0 8 8 16 16 16s16-8 16-16v-442l148 134c6 6 18 6 24 0 4-4 4-8 4-12s0-8-4-12l-176-160h-2l-2-2h-2v-2h-12v2h-2l-2 2h-2l-176 160c-6 6-6 18 0 24s18 6 24 0l148-134v442z" />
<glyph unicode="&#xf119;" glyph-name="ios-arrow-round-forward" horiz-adv-x="512" d="M16 368c-8 0-16 8-16 16s8 16 16 16h442l-134 148c-6 6-6 18 0 24 4 4 8 4 12 4s8 0 12-4l160-176v-2l2-2v-2h2v-12h-2v-2l-2-2v-2l-160-176c-6-6-18-6-24 0s-6 18 0 24l134 148h-442z" />
<glyph unicode="&#xf11a;" glyph-name="ios-arrow-round-up" horiz-adv-x="384" d="M208 144c0-8-8-16-16-16s-16 8-16 16v442l-148-134c-6-6-18-6-24 0-4 4-4 8-4 12s0 8 4 12l176 160h2l2 2h2v2h12v-2h2l2-2h2l176-160c6-6 6-18 0-24s-18-6-24 0l-148 134v-442z" />
<glyph unicode="&#xf11b;" glyph-name="ios-attach" horiz-adv-x="384" d="M368 512c10 0 16-6 16-16v-314c0-100-84-182-180-182h-24c-46 0-90 20-126 54-36 36-54 82-54 128v442c0 80 64 144 144 144s144-64 144-144v-428c0-60-42-100-96-100s-98 42-98 100v236c0 10 8 16 18 16s16-6 16-16v-236c0-34 30-68 64-68s62 34 62 68v428c0 62-48 110-110 110s-112-48-112-110v-442c0-78 68-150 148-150h24c38 0 76 18 104 46 26 28 42 66 42 104v314c0 10 8 16 18 16z" />
<glyph unicode="&#xf11c;" glyph-name="ios-backspace-outline" d="M694 704c76 0 138-62 138-138v-360c0-76-62-142-138-142h-330c-90 0-128 52-204 128s-144 152-144 152c-10 12-16 26-16 42s6 30 16 42c0 0 86 90 144 148s110 128 204 128h330zM800 206v360c0 28-10 56-30 76s-48 30-76 30h-330c-30 0-56-8-84-26-26-18-50-42-74-68l-166-172c-4-4-8-10-8-20s4-16 8-20l172-180c56-58 86-90 152-90h330c28 0 54 12 74 32s32 50 32 78zM536 384l128-128-30-28-126 126-126-126-30 30 126 126-126 126 30 30 126-128 126 128 30-30z" />
<glyph unicode="&#xf11d;" glyph-name="ios-backspace" d="M694 704c76 0 138-62 138-138v-360c0-76-62-142-138-142h-330c-90 0-128 52-204 128s-144 152-144 152c-10 12-16 26-16 42s6 30 16 42c0 0 86 90 144 148s110 128 204 128h330zM634 228l30 28-128 128 128 126-28 30-128-128-126 128-30-30 126-126-126-126 28-30 128 126z" />
<glyph unicode="&#xf11e;" glyph-name="ios-basket-outline" horiz-adv-x="896" d="M736 448h160l-104-388c-10-34-42-60-80-60h-528c-38 0-70 26-80 60l-104 388h160v192c0 70 58 128 128 128h320c70 0 128-58 128-128v-192zM854 416h-182v-96h156l26 96zM76 288l36-128h112v128h-148zM256 288v-128h176v128h-176zM640 320v96h-176v-96h176zM432 320v96h-176v-96h176zM432 128h-176v-96h176v96zM464 128v-96h176v96h-176zM464 160h176v128h-176v-128zM672 288v-128h114l34 128h-148zM192 640v-192h512v192c0 26-10 50-28 68s-42 28-68 28h-320c-26 0-50-10-68-28s-28-42-28-68zM224 416h-182l26-96h156v96zM136 68c6-22 26-36 48-36h40v96h-104zM760 68l16 60h-104v-96h40c22 0 42 16 48 36z" />
<glyph unicode="&#xf11f;" glyph-name="ios-basket" horiz-adv-x="896" d="M736 448h160l-104-388c-10-34-42-60-80-60h-528c-38 0-70 26-80 60l-104 388h160v192c0 70 58 128 128 128h320c70 0 128-58 128-128v-192zM192 640v-192h512v192c0 26-10 50-28 68s-42 28-68 28h-320c-26 0-50-10-68-28s-28-42-28-68zM820 288l8 32h-156v96h-32v-96h-176v96h-32v-96h-176v96h-32v-96h-156l8-32h148v-128h-112l8-32h104v-96h32v96h176v-96h32v96h176v-96h32v96h104l10 32h-114v128h148zM464 160v128h176v-128h-176zM256 160v128h176v-128h-176z" />
<glyph unicode="&#xf120;" glyph-name="ios-battery-charging" d="M672 608c36 0 64-28 64-64v-320c0-36-28-64-64-64h-608c-36 0-64 28-64 64v320c0 36 28 64 64 64h608zM704 224v320c0 18-14 32-32 32h-608c-18 0-32-14-32-32v-320c0-18 14-32 32-32h608c18 0 32 14 32 32zM644 544c18 0 28-10 28-28v-264c0-18-10-28-28-28h-552c-18 0-28 10-28 28v264c0 18 10 28 28 28h552zM342 280l90 122h-54l16 86-90-122h54zM768 494c38-22 64-62 64-110s-26-88-64-110v220z" />
<glyph unicode="&#xf121;" glyph-name="ios-battery-dead" d="M672 608c36 0 64-28 64-64v-320c0-36-28-64-64-64h-608c-36 0-64 28-64 64v320c0 36 28 64 64 64h608zM704 224v320c0 18-14 32-32 32h-608c-18 0-32-14-32-32v-320c0-18 14-32 32-32h608c18 0 32 14 32 32zM768 494c38-22 64-62 64-110s-26-88-64-110v220z" />
<glyph unicode="&#xf122;" glyph-name="ios-battery-full" d="M672 608c36 0 64-28 64-64v-320c0-36-28-64-64-64h-608c-36 0-64 28-64 64v320c0 36 28 64 64 64h608zM704 224v320c0 18-14 32-32 32h-608c-18 0-32-14-32-32v-320c0-18 14-32 32-32h608c18 0 32 14 32 32zM644 544c18 0 28-10 28-28v-264c0-18-10-28-28-28h-552c-18 0-28 10-28 28v264c0 18 10 28 28 28h552zM768 494c38-22 64-62 64-110s-26-88-64-110v220z" />
<glyph unicode="&#xf123;" glyph-name="ios-beaker-outline" horiz-adv-x="768" d="M762 800c4 0 6-2 6-4s-4-8-6-12-24-30-28-66v-620c0-70-56-130-126-130h-416c-70 0-128 58-128 128v552c0 64-4 64-64 72 0 24 20 80 128 80h634zM702 718c0 38 14 50 14 50h-588c-48 0-72-14-84-24 14-4 28-6 36-16 18-20 16-46 16-80v-552c0-54 44-96 96-96h416c26 0 48 12 66 30s28 40 28 66v622zM638 544h-478v-414c0-22 6-40 14-50s20-16 38-16h374c12 0 30 8 42 20 8 8 10 24 10 44v416zM670 576v0-448c0-24-4-50-20-66s-42-30-64-30h-374c-58 0-84 42-84 98v446h542z" />
<glyph unicode="&#xf124;" glyph-name="ios-beaker" horiz-adv-x="768" d="M212 64c-18 0-30 6-38 16s-14 28-14 50v414h478v-416c0-20-2-36-10-44-12-12-30-20-42-20h-374zM762 800c4 0 6-2 6-4s-4-8-6-12-24-30-28-66v-620c0-70-56-130-126-130h-416c-70 0-128 58-128 128v552c0 64-4 64-64 72 0 24 20 80 128 80h634zM670 128v448h-542v-446c0-56 26-98 84-98h374c22 0 48 14 64 30s20 42 20 66z" />
<glyph unicode="&#xf125;" glyph-name="ios-beer-outline" horiz-adv-x="704" d="M608 660v-52h-544v-352h-20c-18 0-34 16-34 34 0 32 22 44 22 70v214c0 38-32 22-32 80v8c0 52 36 90 86 90h48c16 30 48 52 84 52 28 0 54-10 70-30 22 34 50 58 104 58s106-40 118-94l22-2c42 0 76-34 76-76zM576 640v20c0 24-16 40-44 44s-48 4-48 4l-4 24c-4 20-16 36-32 48s-36 20-56 20c-32 0-62-18-84-48l-16-20-22 20c-16 12-34 22-52 22-24 0-44-14-54-34l-8-20h-70c-14 0-28-6-38-16-10-12-16-24-16-42v-8c0-6 2-14 8-14h536zM376 448c0 22 18 40 40 40s40-18 40-40-18-40-40-40-40 18-40 40zM320 352c0 18 14 32 32 32s32-14 32-32-14-32-32-32-32 14-32 32zM368 192c0 14 10 24 24 24s24-10 24-24-10-24-24-24-24 10-24 24zM32-64v32h608v-32h-608zM672 480c18 0 32-14 32-32v-256c0-18-14-32-32-32h-96v-128l32-32h-544l32 32v544h480v-96h96zM544 32v512h-416v-512h416zM672 192v256h-96v-256h96z" />
<glyph unicode="&#xf126;" glyph-name="ios-beer" horiz-adv-x="704" d="M64 256h-20c-18 0-34 16-34 34 0 32 22 44 22 70v214c0 38-32 22-32 80v8c0 52 36 90 86 90h48c16 30 48 52 84 52 28 0 54-10 70-30 22 34 50 58 104 58s106-40 118-94l22-2c42 0 76-34 76-76v-52h-544v-352zM672 480c18 0 32-14 32-32v-256c0-18-14-32-32-32h-96v-128l64-64v-32h-608v32l64 64v544h480v-96h96zM416 488c-22 0-40-18-40-40s18-40 40-40 40 18 40 40-18 40-40 40zM416 192c0 14-10 24-24 24s-24-10-24-24 10-24 24-24 24 10 24 24zM352 384c-18 0-32-14-32-32s14-32 32-32 32 14 32 32-14 32-32 32zM672 192v256h-96v-256h96z" />
<glyph unicode="&#xf127;" glyph-name="ios-bicycle" horiz-adv-x="896" d="M186 374c102 0 188-86 188-188s-86-186-188-186-186 84-186 186 84 188 186 188zM296 78c30 30 46 68 46 108 0 42-16 80-46 110s-68 46-110 46-78-16-108-46-46-68-46-110c0-40 16-78 46-108s66-46 108-46 80 16 110 46zM576 640c-36 0-64 28-64 64s28 64 64 64 64-28 64-64-28-64-64-64zM710 374c102 0 186-86 186-188s-84-186-186-186-188 84-188 186 86 188 188 188zM818 78c30 30 46 68 46 108 0 42-16 80-46 110s-66 46-108 46-80-16-110-46-46-68-46-110 16-78 46-108 68-46 110-46 78 16 108 46zM672 512c18 0 32-14 32-32s-14-32-32-32h-114s-38 48-76 104l-98-104c36-28 96-50 96-76v-180c0-18-14-32-32-32s-32 14-32 32v132s-32 32-124 84c-12 8-36 20-36 54 0 16 6 34 18 46l144 138c12 12 28 18 44 18 22 0 42-14 54-32l60-120h96z" />
<glyph unicode="&#xf128;" glyph-name="ios-bluetooth" horiz-adv-x="512" d="M316 384l196-176-256-272h-32v362l-178-158-46 52 224 192-224 192 46 50 178-154v360h32l256-274zM420 208l-132 114v-256zM288 444l132 116-132 142v-258z" />
<glyph unicode="&#xf129;" glyph-name="ios-boat-outline" horiz-adv-x="800" d="M400 0c60 0 140 14 192 32 0 0 72-44 160-64-66 0-106 18-160 32-44-20-134-32-192-32s-146 14-192 32c-54-14-96-32-160-32 90 20 160 64 160 64 52-18 132-32 192-32zM780 370c12-6 20-18 20-32 0-4 0-10-2-14l-110-292c-56 0-114 38-114 38-40-20-122-38-174-38s-134 18-174 38c0 0-58-38-114-38l-110 292c-2 4-2 10-2 14 0 14 8 26 20 32v0l62 28 46 244c10 52 34 94 80 94h68l16 64h214l16-64h70c44 0 68-40 80-94v0l46-244 62-28zM318 768l-8-32h180l-8 32h-164zM160 636l-42-222 74 34h-2c-18 0-32 16-30 32l30 160c4 22 14 32 32 32h356c18 0 26-10 32-32l30-160c4-22-12-32-30-32v0l72-34-42 222c-8 42-22 68-48 68h-384c-26 0-40-26-48-68zM400 544l140-64h68l-30 152c0 4-2 6-2 8h-352c0-2-2-2-2-6l-30-154h68zM224 106l16-8c32-16 96-30 144-34v440l-350-164s-2 0-2-2l102-272c32 6 62 22 74 30zM666 66l102 272c0 2-2 2-2 2l-350 164v-440c48 2 112 18 144 34l16 8 16-10c12-8 42-24 74-30zM464 364c0 24 10 44 24 44s24-20 24-44-10-44-24-44-24 20-24 44zM288 364c0 24 10 44 24 44s24-20 24-44-10-44-24-44-24 20-24 44z" />
<glyph unicode="&#xf12a;" glyph-name="ios-boat" horiz-adv-x="800" d="M592 32c0 0 72-44 160-64-66 0-106 18-160 32-44-20-134-32-192-32s-146 14-192 32c-54-14-96-32-160-32 90 20 160 64 160 64 52-18 132-32 192-32s140 14 192 32zM780 370c12-6 20-18 20-32 0-4 0-10-2-14l-110-292c-56 0-114 38-114 38-36-18-106-34-158-38h-32c-52 4-122 20-158 38 0 0-58-38-114-38l-110 292c-2 4-2 10-2 14 0 14 8 26 20 32v0l380 174 380-174zM312 320c14 0 24 20 24 44s-10 44-24 44-24-20-24-44 10-44 24-44zM488 320c14 0 24 20 24 44s-10 44-24 44-24-20-24-44 10-44 24-44zM672 642l40-208-70 30-32 176c-6 22-16 32-34 32h-354c-18 0-28-10-32-32l-32-176-70-30 40 208c10 52 34 94 80 94h68l16 64h214l16-64h70c44 0 68-40 80-94v0z" />
<glyph unicode="&#xf12b;" glyph-name="ios-bonfire-outline" horiz-adv-x="768" d="M382 192l-32-156v-8c0-8 2-16 8-20 6-6 14-8 24-8 16 0 32 8 32 28 0 2-2 6-2 8v2l-30 150v4zM382 224v0c16 0 30-14 32-30l30-150c2-6 2-10 2-16 0-36-28-60-64-60s-64 24-64 60c0 4 2 10 2 14l30 158c4 14 16 24 32 24zM484 186v0 0 0 0zM538 166l62-84v-2l4-4s4-4 10-4 12 2 14 4c4 4 4 10 4 16 0 4-2 6-2 6l-4 2c-2 0-2 4-2 4h-2l-2 2zM504 224v0c6 0 10-2 16-6l120-86c4-2 6-6 10-8 18-16 20-50 0-70-10-10-24-14-36-14-14 0-26 4-34 14-2 2-4 4-6 8l-90 124c-6 10-4 22 4 30 4 4 10 8 16 8zM616 226v0 0 0 0zM150 226v0 0 0 0zM230 166l-82-60-2-2h-2c-2 0-4-4-4-4-6-6-6-18 0-24 4-4 8-4 12-4s8 0 12 4l4 4v2zM264 224v0c6 0 12-4 16-8 8-8 10-20 4-30l-90-124c-2-4-4-6-6-8-10-10-24-14-36-14s-24 4-34 14c-20 20-20 50 0 70 4 4 6 6 10 8l120 86c4 4 10 6 16 6zM430 760c-8-82-70-140-126-192-48-44-92-86-100-136-6-46 4-82 32-112 6-6 10-14 16-18 38 76 110 118 170 152 18 10 36 18 50 28 34 22 58 44 70 68 12 20 16 40 16 68 0 50-36 86-66 108-20 16-44 28-62 34zM398 800v0c48 0 192-66 192-182 0-60-20-110-102-162-74-48-186-86-218-200 0 0-116 46-96 182s248 200 224 362zM584 504c10-28 14-98 4-128-32-94-88-120-160-120-30 0-70 24-92 56 8 8 14 12 22 20 0 0 6-8 22-22s38-22 50-22c32 0 56 6 76 20 22 16 40 42 52 80 2 6 6 22 4 40s-4 40-4 40c10 12 20 24 26 36zM246 740c26 0 60-16 80-52-4-10-16-26-16-26-6 10-12 16-18 24s-14 10-20 14c-2 2-4 2-6 4-8-26-24-48-38-64-10-12-20-22-22-30s2-26 10-34c0 0-12-14-20-24-12 8-24 32-22 58 4 42 68 72 64 130h8zM148 226l-122-26c-12-2-24 4-26 16s6 22 18 24l2 2 122 14c8 0 16-6 18-14 0-8-4-14-12-16zM620 226c-8 2-12 8-12 16 2 8 10 14 18 14l122-14 2-2c12-2 20-12 18-24s-14-18-26-16z" />
<glyph unicode="&#xf12c;" glyph-name="ios-bonfire" horiz-adv-x="768" d="M414 194l30-150c2-6 2-10 2-16 0-36-28-60-64-60s-64 24-64 60c0 4 2 10 2 14l30 158c4 14 16 24 32 24s30-14 32-30zM484 186v0 0zM650 124c18-16 18-50 0-70-20-20-54-18-70 0-2 2-4 4-6 8l-90 124c-6 10-4 22 4 30 8 10 20 10 32 2l120-86c4-2 6-6 10-8zM616 226v0 0zM742 256c16 0 26-12 26-36 0-18-20-34-36-30l-114 36h-2c-6 4-10 10-8 18s8 12 16 12h118zM150 226v0 0zM150 226v0l-116-36c-16-4-34 12-34 30s8 36 24 36h120s14-4 16-12-4-14-10-18v0zM248 218c10 8 22 6 32-2 8-8 10-20 4-30l-90-122c-2-4-4-8-6-10-20-20-50-20-70 0s-20 50 0 70c4 4 6 6 10 8zM590 618c0-60-20-110-102-162-74-48-186-86-218-200 0 0-116 46-96 182s248 200 224 362c48 0 192-66 192-182zM590 376c-32-94-88-120-160-120-30 0-72 24-94 56 24 28 56 48 94 68 18 10 40 20 58 32 42 28 78 56 96 92 10-28 16-98 6-128zM196 552c-12 8-24 32-22 58 4 42 68 72 64 130 28 4 68-12 90-52-10-20-30-40-56-64s-52-42-76-72z" />
<glyph unicode="&#xf12d;" glyph-name="ios-bookmark-outline" horiz-adv-x="512" d="M0 800h512v-832l-256 192-256-192v832zM480 32v736h-448v-736l224 168z" />
<glyph unicode="&#xf12e;" glyph-name="ios-bookmark" horiz-adv-x="512" d="M0 800h512v-832l-256 192-256-192v832z" />
<glyph unicode="&#xf12f;" glyph-name="ios-bowtie-outline" horiz-adv-x="896" d="M470 492c22 0 38-6 48-24 20-34 38-106 34-170-2-34-10-44-10-44s-24-14-72-14h-22c-70 6-80 30-80 30s8 24 16 86 0 116 0 116 16 10 40 14c16 4 32 6 46 6v0zM520 300c2 26-2 58-8 88-6 26-12 50-20 64-2 2-6 8-22 8v0 0 0c-12 0-28-4-40-6-4 0-8 0-12-2 2-24 2-60-2-100-4-32-8-56-12-70 8-4 22-8 46-10h20c22 0 38 2 46 6 0 4 4 12 4 22zM104 672c70 0 212-114 256-194 0 0 6-32 4-64v-20c0-6-2-12-2-20 0-10 0-20-2-30l-4-20c-8-42-20-68-20-68s-166-160-232-160c-56 0-104 136-104 288s52 288 104 288zM224 200c38 30 72 62 84 74 2 8 8 22 12 42-42-8-108-14-112-14-2 0-4 2-4 4s2 4 4 4c0 0 42 12 76 20 18 4 30 10 42 14l2 4c2 8 2 20 2 28 0 6 2 10 2 16-4 2-8 2-12 4-10 4-22 8-38 14-76 26-114 34-114 34-2 0-2 2-2 4s2 4 4 4 30 6 86-6c36-8 60-14 76-22 0 18-2 36-4 44-20 34-60 76-106 112-24 18-46 34-68 44-28 14-44 16-50 16-4 0-22-14-42-70-18-52-30-120-30-186 0-70 10-138 28-190 18-50 38-66 44-66s34 2 120 72zM792 672c52 0 104-136 104-288s-48-288-104-288c-74 0-208 138-224 158 0 0 8 10 10 44v34c0 22-4 46-8 66l-6 22c-6 20-14 36-20 48 0 2-4 8-4 8l2 2c44 80 178 194 250 194zM792 128c6 0 26 16 44 66 18 52 28 120 28 190 0 66-12 134-30 186-20 56-38 70-42 70-20 0-62-16-116-60-40-32-76-70-98-104 6-12 12-28 16-46v0l2-2c18 6 40 14 60 22 40 14 70 20 70 20 2 0 6-2 6-4s-2-4-4-4c0 0-86-40-126-62 4-22 6-44 8-66v0 0-2c12-4 26-10 44-14 38-10 82-24 82-24 2 0 2-2 2-4s-2-4-4-4v0c-4 0-82 8-124 20v-10c0-14-4-28-6-36 14-16 42-42 74-68 48-40 92-64 114-64z" />
<glyph unicode="&#xf130;" glyph-name="ios-bowtie" horiz-adv-x="896" d="M518 468c20-34 38-106 34-170-2-34-10-44-10-44s-24-14-72-14h-22c-70 6-80 30-80 30s8 24 16 86 0 116 0 116 14 10 38 14c16 4 34 6 46 6v0c22 0 40-8 50-24zM360 478c0 0 6-32 4-64v-20c0-6-2-12-2-20 0-10 0-20-2-30l-4-20c-8-42-20-68-20-68s-166-160-232-160c-56 0-104 136-104 288s52 288 104 288c70 0 212-114 256-194zM166 448c0-2 2-4 4-4 0 0 38-8 114-34 16-6 28-10 38-14 6-2 10-4 16-6l2 30c-16 8-42 18-84 26-56 12-84 6-86 6s-4-2-4-4zM332 318l4 30c-10-4-28-12-52-18-34-8-76-20-76-20-2 0-4-2-4-4s2-4 4-4c4 0 84 6 124 16zM792 672c52 0 104-136 104-288s-48-288-104-288c-74 0-208 138-224 158 0 0 8 10 10 44v34c0 22-4 46-8 66l-6 22c-6 20-14 36-20 48 0 2-4 8-4 8l2 2c44 80 178 194 250 194zM656 450c-24-8-52-18-72-24v-2l8-30c36 22 136 68 136 68 2 0 2 2 2 4s-2 2-4 2c0 0-30-4-70-18zM738 290c0 2 0 4-2 4 0 0-44 14-82 24-24 6-42 14-54 18 0 0-6-2-2-26 38-14 132-24 136-24v0c2 0 4 2 4 4z" />
<glyph unicode="&#xf131;" glyph-name="ios-brush-outline" horiz-adv-x="896" d="M236 330c104 0 204-82 180-204-22-104-108-142-180-154-12-2-28-4-44-4-68 0-164 20-192 76 48 18 68 50 68 96 0 98 64 190 168 190zM384 132c10 52-6 86-24 108-28 34-76 58-124 58-50 0-82-26-100-48-24-28-36-68-36-110 0-44-18-82-50-106 32-22 92-34 142-34 18 0 30 0 38 2 40 8 70 20 96 38 32 22 50 52 58 92zM872 776c26-26 34-60 10-90l-308-350c4-18 4-34-4-46l-110-124v-2c-2-2-4-2-6-2s-4 0-6 2-2 4-2 6v2c4 106-84 176-180 182v0h-4s-4 2-4 2c-4 4-4 8 0 12l128 104c8 6 16 8 26 8 6 0 14 0 20-2l350 308c12 10 26 14 38 14 18 0 36-8 52-24zM858 706c8 10 6 16 6 20-2 8-8 18-16 26-10 10-18 16-28 16-6 0-12-2-18-6l-362-320-18 6h-18l-84-72c36-10 68-28 94-52 28-26 48-60 58-96l72 80c2 4 0 12-2 20l-4 16zM258 368v0 0z" />
<glyph unicode="&#xf132;" glyph-name="ios-brush" horiz-adv-x="896" d="M236 330c104 0 204-82 180-204-22-104-108-142-180-154-12-2-28-4-44-4-68 0-164 20-192 76 48 18 68 50 68 96 0 98 64 190 168 190zM872 776c26-26 34-60 10-90l-308-350c4-18 4-34-4-46l-110-124v-2c-2-2-4-2-6-2s-4 0-6 2-2 4-2 6v2c4 106-84 176-180 182v0h-4s-4 2-4 2c-4 4-4 8 0 12l128 104c8 6 16 8 26 8 6 0 14 0 20-2l350 308c12 10 26 14 38 14 18 0 36-8 52-24zM258 368v0 0z" />
<glyph unicode="&#xf133;" glyph-name="ios-bug-outline" horiz-adv-x="896" d="M848 384c26 0 48-22 48-48s-22-48-48-48-48 22-48 48c0 4 0 10 2 14-8 2-18 6-34 6-4-78-28-148-66-206 12-10 28-26 38-54 24-2 44-24 44-48 0-26-22-48-48-48s-48 22-48 48c0 16 10 32 22 40-8 18-20 30-28 36-56-72-132-118-218-124v0h-32c-86 6-162 52-218 124-8-6-20-18-28-36 12-8 22-24 22-40 0-26-22-48-48-48s-48 22-48 48c0 24 20 46 44 48 10 28 26 46 38 54-38 58-62 128-66 206-16-2-26-4-34-6 2-4 2-10 2-14 0-26-22-48-48-48s-48 22-48 48 22 48 48 48c10 0 18-4 26-8 10 4 28 10 54 12 0 56 12 108 30 156-16 12-32 30-44 48h-2c-26 0-48 22-48 48s22 48 48 48 48-22 48-48c0-14-6-28-16-36 6-10 14-18 26-28 56 116 160 192 278 192s222-78 278-194c12 10 20 20 26 30-10 8-16 22-16 36 0 26 22 48 48 48s48-22 48-48-22-48-48-48h-2c-12-18-28-36-44-48 18-48 30-100 30-156 26-2 44-8 54-12 8 4 16 8 26 8zM784 656c-8 0-16-8-16-16s8-16 16-16 16 8 16 16-8 16-16 16zM112 624c8 0 16 8 16 16s-8 16-16 16-16-8-16-16 8-16 16-16zM48 320c8 0 16 8 16 16s-8 16-16 16-16-8-16-16 8-16 16-16zM160 32c8 0 16 8 16 16s-8 16-16 16-16-8-16-16 8-16 16-16zM736 64c-8 0-16-8-16-16s8-16 16-16 16 8 16 16-8 16-16 16zM448 736c-88 0-170-50-222-128 12-18 26-36 42-52 48-48 112-74 180-74s132 26 180 74c16 16 30 34 42 52-52 78-134 128-222 128zM160 384c0-188 120-342 272-352v418c-94 4-176 54-224 128-30-56-48-122-48-194zM464 32c152 10 272 164 272 352 0 72-18 138-48 194-48-74-132-122-224-128v-418zM848 320c8 0 16 8 16 16s-8 16-16 16-16-8-16-16 8-16 16-16z" />
<glyph unicode="&#xf134;" glyph-name="ios-bug" horiz-adv-x="896" d="M686 642c-12-32-34-62-58-86-48-48-112-74-180-74s-132 26-180 74c-24 24-46 54-58 86 58 78 144 126 238 126s180-48 238-126zM190 610c44-90 136-154 242-160v-450c-80 4-154 46-208 110-16-12-20-18-26-30 16-18 14-46-2-64-18-20-48-22-68-4s-22 48-4 68l6 6s4 2 4 2c8 26 26 52 54 74-30 52-52 112-58 178-14 0-24-2-34-6 0-26-22-46-48-46s-48 22-48 48 22 48 48 48h6c8 4 16 10 24 12 14 4 28 8 50 8 2 46 12 90 26 130-12 8-22 14-30 22-12 10-22 28-28 40-2 0-6 0-8 2-24 12-30 42-18 66s42 30 66 18c22-12 30-40 20-62 4-8 6-14 8-16 4-4 10-6 16-10 4 6 6 10 10 16zM848 384c26 0 48-22 48-48s-22-48-48-48-48 20-48 46c-10 4-20 6-34 6-6-66-28-128-58-180 28-22 46-46 54-72 0 0 2 0 4-2l6-6c18-20 16-50-4-68s-50-16-68 4c-16 18-18 44-2 62-6 12-12 18-26 30-54-64-128-104-208-108v450c106 6 198 70 242 160 4-6 6-12 10-18 6 4 12 8 16 12 2 2 4 10 8 16-10 22-2 50 20 62 24 12 54 6 66-18s6-54-18-66c-2-2-6-4-8-4-6-12-16-28-28-38-8-8-18-14-30-22 14-40 24-84 26-130 22 0 36-4 50-8 8-2 16-8 24-12h6z" />
<glyph unicode="&#xf135;" glyph-name="ios-build-outline" d="M600 768h-2c-20 0-64-14-98-50v0 0c-18-20-76-88-40-174v0 0c2-6 8-18 8-32 0-12-4-28-20-44v0 0c-16-16-384-362-400-376v0 0c-12-10-16-24-16-34 0-16 6-30 16-42 10-10 28-16 42-16 8 0 22 2 34 16v0 0c14 16 360 382 378 400 16 16 32 20 44 20 14 0 24-4 32-8v0 0c14-8 30-12 50-12 44 0 92 20 122 50 38 38 48 76 50 100 0 4 0 16-6 30l-90-90-16 2-102 20-22 4-4 22-18 102-4 16 90 90c-10 4-20 6-28 6v0zM600 800v0c24 0 56-10 78-32l-106-106 20-102 102-20 104 106c26-26 36-58 34-82s-12-72-60-120c-34-34-90-60-144-60-22 0-44 6-64 16-4 2-12 4-18 4s-14-2-22-10c-18-18-376-400-376-400-16-18-38-26-60-26s-46 10-62 26c-34 34-36 90 0 122 0 0 384 362 400 376 14 14 8 30 4 40-38 88 6 166 46 208 42 44 96 58 120 60h4zM110 38c-12-10-28-10-40 0-10 12-10 28 0 40 12 10 28 10 40 0 10-12 10-30 0-40z" />
<glyph unicode="&#xf136;" glyph-name="ios-build" d="M798 646c26-26 36-58 34-82s-12-72-60-120c-34-34-90-60-144-60-22 0-44 6-64 16-4 2-12 4-18 4s-14-2-22-10c-18-18-376-400-376-400-16-18-38-26-60-26s-46 10-62 26c-34 34-36 90 0 122 0 0 384 362 400 376 14 14 8 30 4 40-38 88 6 166 46 208 42 44 96 58 120 60h4c24 0 56-10 78-32l-106-106 20-102 102-20z" />
<glyph unicode="&#xf137;" glyph-name="ios-bulb-outline" horiz-adv-x="576" d="M576 518c0-62-26-118-60-166v0c-22-30-44-56-64-90-44-76-36-144-36-162v-4h-256v4c0 14 6 86-38 162-20 34-40 60-62 90v0c-34 48-60 104-60 166 0 156 132 282 288 282s288-126 288-282zM478 356l12 16c32 44 54 94 54 146 0 66-32 130-80 178s-110 72-176 72-128-24-176-72-80-112-80-178c0-52 22-102 54-146l38-52c10-12 18-26 26-42 34-58 42-116 42-150h32v224l-64 128h34l62-128v-224h64v224l62 128h34l-64-128v-224h32c0 34 8 90 42 150 16 28 32 50 48 72 2 2 2 4 4 6zM224-32v32h128v-32h-128zM192 32v32h192v-32h-192z" />
<glyph unicode="&#xf138;" glyph-name="ios-bulb" horiz-adv-x="576" d="M576 518c0-62-26-118-60-166v0c-22-30-44-56-64-90-44-76-36-144-36-162v-4h-64v256l64 128h-34l-62-128v-256h-64v256l-62 128h-34l64-128v-256h-64v4c0 14 6 86-38 162-20 34-40 60-62 90v0c-34 48-60 104-60 166 0 156 132 282 288 282s288-126 288-282zM224-32v32h128v-32h-128zM192 32v32h192v-32h-192z" />
<glyph unicode="&#xf139;" glyph-name="ios-bus-outline" horiz-adv-x="640" d="M640 64c-2-56-2-64-12-64h-110s-6 12-6 32c80 0 112-6 128 32zM0 64c28-38 48-32 128-32 0-20 2-32-6-32h-110s-8 8-12 64zM464 192c0 26 22 48 48 48s48-22 48-48-22-48-48-48-48 22-48 48zM80 192c0 26 22 48 48 48s48-22 48-48-22-48-48-48-48 22-48 48zM576 768c36 0 64-28 64-64v0-560c0-44-36-80-80-80h-480c-44 0-80 36-80 80v560c0 36 28 64 64 64h512zM608 144v144h-576v-144c0-26 22-48 48-48h480c26 0 48 22 48 48zM32 352c0-18 14-32 32-32h240v320h-240c-18 0-32-14-32-32v-256zM608 352v256c0 18-14 32-32 32h-240v-320h240c18 0 32 14 32 32zM576 672c18 0 32 14 32 32s-14 32-32 32h-512c-18 0-32-14-32-32s14-32 32-32h512z" />
<glyph unicode="&#xf13a;" glyph-name="ios-bus" horiz-adv-x="640" d="M512 32c80 0 112-6 128 32-2-56-2-64-12-64h-110s-6 12-6 32zM0 64c28-38 48-32 128-32 0-20 2-32-6-32h-110s-8 8-12 64zM576 768c36 0 64-28 64-64v0-560c0-44-36-80-80-80h-480c-44 0-80 36-80 80v560c0 36 28 64 64 64h512zM128 144c26 0 48 22 48 48s-22 48-48 48-48-22-48-48 22-48 48-48zM304 320v320h-240c-18 0-32-14-32-32v-256c0-18 14-32 32-32h240zM512 144c26 0 48 22 48 48s-22 48-48 48-48-22-48-48 22-48 48-48zM608 352v256c0 18-14 32-32 32h-240v-320h240c18 0 32 14 32 32zM576 672c18 0 32 14 32 32s-14 32-32 32h-512c-18 0-32-14-32-32s14-32 32-32h512z" />
<glyph unicode="&#xf13b;" glyph-name="ios-cafe-outline" horiz-adv-x="896" d="M0 64v32h896v-32h-896zM336 128c-30 0-272 64-272 576h704c0-26 0-50-2-74 76-24 130-88 130-166 0-98-86-176-192-176h-18c-74-136-172-160-190-160h-160zM864 464c0 60-42 112-100 134-8-120-34-210-64-278h4c88 0 160 64 160 144zM96 672c2-98 16-186 38-260 20-64 46-120 80-164 48-64 98-88 122-88h162s72 24 120 88c34 44 60 100 80 164 22 74 36 162 38 260h-640z" />
<glyph unicode="&#xf13c;" glyph-name="ios-cafe" horiz-adv-x="896" d="M0 64v32h896v-32h-896zM336 128c-30 0-272 64-272 576h704c0-26 0-50-2-74 76-24 130-88 130-166 0-98-86-176-192-176h-18c-74-136-172-160-190-160h-160zM864 464c0 60-42 112-100 134-8-120-34-210-64-278h4c88 0 160 64 160 144z" />
<glyph unicode="&#xf13d;" glyph-name="ios-call-outline" horiz-adv-x="704" d="M672 224c32-32 52-70 0-132-50-60-84-60-128-60-48 0-116 28-186 80-64 46-92 68-156 134-68 70-110 128-158 214-54 100-48 148-36 184 8 24 28 48 56 66l2 2c12 8 36 24 64 24 26 0 48-12 68-36l2-2c22-28 48-62 64-94 20-42 20-76-2-106-18-24-24-38-24-46s10-18 26-36l2-2c32-36 40-46 52-58 2-2 6-4 8-6l4-4c14-14 22-24 58-56l2-2c14-12 18-16 24-16 10 0 32 14 58 30 8 6 22 10 34 10 54 0 136-58 166-88zM648 114c38 44 26 62 2 86-26 28-100 78-144 78-6 0-12-2-16-4-38-24-56-36-74-36s-30 12-46 26h-2c-38 32-46 42-60 58l-4 4c-2 2-6 4-8 6-12 12-22 24-54 60v2c-20 22-34 36-36 56s10 40 32 68c30 40-10 96-62 158l-2 2c-14 16-28 24-44 24-20 0-36-12-46-18-2 0-4-2-4-2-22-14-36-32-42-48-10-32-14-70 34-158 46-84 86-140 152-208 62-64 90-84 152-128 64-46 128-76 168-76 42 0 64 2 104 50z" />
<glyph unicode="&#xf13e;" glyph-name="ios-call" horiz-adv-x="704" d="M672 224c32-32 52-70 0-132-50-60-84-60-128-60-48 0-116 28-186 80-64 46-92 68-156 134-68 70-110 128-158 214-54 100-48 148-36 184 8 24 28 48 56 66l2 2c12 8 36 24 64 24 26 0 48-12 68-36l2-2c22-28 48-62 64-94 20-42 20-76-2-106-18-24-24-38-24-46s10-18 26-36l2-2c32-36 40-46 52-58 2-2 6-4 8-6l4-4c14-14 22-24 58-56l2-2c14-12 18-16 24-16 10 0 32 14 58 30 8 6 22 10 34 10 54 0 136-58 166-88z" />
<glyph unicode="&#xf13f;" glyph-name="ios-car-outline" horiz-adv-x="896" d="M806 490c0 0 54-30 82-62 0 0 8-48 8-116 0-96-12-176-12-176-52-10-92-14-132-14h-58c-48 0-32 14-54 14v0c-22 0-110-8-192-8s-170 8-192 8v0c-22 0-6-14-54-14h-58c-40 0-80 4-132 14 0 0-12 80-12 176 0 66 8 116 8 116 28 32 82 60 82 60l-30 6c-14 0-46 6-52 12s-8 12-8 18 4 16 10 22 30 10 46 12c4 0 10 2 12 2 6 0 8-2 10-4 4-2 6-24 6-34l16-4c10 24 24 72 44 108 24 42 46 54 56 58s18 6 86 12c68 8 128 8 162 8s92 0 160-8 76-8 86-12 34-16 58-58c20-36 32-84 42-108l18 4c0 10 2 30 6 34 2 2 4 4 10 4 2 0 6-2 10-2 16-2 42-6 48-12s10-16 10-22-2-12-8-18-38-12-52-12v0zM156 588c-8-20-22-68-20-74 2-4 0-6 12-6h16c28 2 198 4 284 4s256-2 284-4h16c12 0 10 2 12 6 2 6-12 54-20 74s-28 52-44 64c0 0-96 20-248 20s-248-20-248-20c-16-12-36-44-44-64zM856 164c4 30 8 86 8 148 0 48-4 86-6 102-22 20-56 42-68 48l-28 14s-88 4-314 4-314-4-314-4l-28-14c-12-6-46-28-68-48-2-16-6-56-6-102 0-62 4-118 8-148 36-6 68-10 104-10h58c12 0 16 2 18 2 8 6 18 14 36 14v0c8 0 22 0 40-2 38-2 96-8 152-8s114 6 152 8c18 0 32 2 40 2v0c18 0 28-8 36-14 2 0 6-2 18-2h58c36 0 68 4 104 10zM214 340c-20 0-60 2-70 2s-18-8-22-8-52 8-56 30 0 46 0 46c32 2 62 0 118-16s86-46 86-46-36-8-56-8zM620 218c-26-4-116-6-172-6s-146 2-172 6-60 34-38 60c16 16 42 26 98 34 60 8 98 8 112 8s52 0 112-8c56-8 84-18 96-34 20-28-10-56-36-60zM830 364c-4-22-52-30-56-30s-12 8-22 8-50-2-70-2-56 8-56 8 30 30 86 46 86 18 118 16c0 0 4-24 0-46zM738 72v34c38 0 84 2 136 12 0 0-2-26-4-42 0-4-2-12-12-12h-114c-4 0-6 4-6 8zM26 76c-2 16-4 42-4 42 52-10 98-12 136-12v-34c0-4-2-8-6-8h-114c-10 0-12 8-12 12z" />
<glyph unicode="&#xf140;" glyph-name="ios-car" horiz-adv-x="896" d="M888 428c0 0 8-48 8-116 0-96-12-178-12-178-52-10-92-12-132-12-20 0-38-2-58-2-50 0-30 16-54 16-22 0-110-8-192-8s-170 8-192 8c-24 0-4-16-54-16-20 0-38 2-58 2-40 0-80 2-132 12 0 0-12 82-12 178 0 66 8 116 8 116 28 32 82 62 82 62l-30 6c-14 0-46 4-52 10s-8 12-8 18 4 16 10 22 30 10 46 12 18 0 22-2 6-24 6-34l16-4c10 24 24 72 44 108 24 42 46 54 56 58s20 6 88 12c68 8 126 8 160 8s92 0 160-8 78-8 88-12 32-16 56-58c20-36 34-84 44-108l16 4c0 10 2 30 6 34 4 2 6 4 22 2s40-6 46-12 10-16 10-22-2-12-8-18-38-10-52-10v0l-30-6s54-30 82-62zM156 586c-8-20-22-66-20-72s0-8 28-6 198 4 284 4 258-2 286-4 24 0 26 6-12 52-20 72-28 54-44 66c0 0-96 20-248 20s-246-20-246-20c-16-12-38-46-46-66zM184 354c20 0 56 8 56 8s-30 30-86 46-86 18-118 16c0 0-4-22 0-44s52-30 56-30 12 6 22 6 50-2 70-2zM620 216c26 4 56 32 36 60-12 16-40 28-96 36-60 8-98 8-112 8s-52 0-112-8c-56-8-80-20-96-36-22-26 10-56 36-60s116-4 172-4 146 0 172 4zM860 378c4 22 0 46 0 46-32 2-60 0-116-16s-88-46-88-46 36-8 56-8 60 2 70 2 18-8 22-8 52 8 56 30zM738 72v34c38 0 84 2 136 12 0 0-2-26-4-42 0-4-2-12-12-12h-114c-4 0-6 4-6 8zM26 76c-2 16-4 42-4 42 52-10 98-12 136-12v-34c0-4-2-8-6-8h-114c-10 0-12 8-12 12z" />
<glyph unicode="&#xf141;" glyph-name="ios-card-outline" d="M768 672c36 0 64-28 64-64v-448c0-36-28-64-64-64h-704c-36 0-64 28-64 64v448c0 36 28 64 64 64h704zM64 640c-18 0-32-14-32-32v-64h768v64c0 18-14 32-32 32h-704zM800 512h-768v-96h768v96zM768 128c18 0 32 14 32 32v224h-768v-224c0-18 14-32 32-32h704zM96 224v32h64v-32h-64zM224 224v32h384v-32h-384z" />
<glyph unicode="&#xf142;" glyph-name="ios-card" d="M768 672c36 0 64-28 64-64v-448c0-36-28-64-64-64h-704c-36 0-64 28-64 64v448c0 36 28 64 64 64h704zM64 640c-18 0-32-14-32-32v-64h768v64c0 18-14 32-32 32h-704zM768 128c18 0 32 14 32 32v224h-768v-224c0-18 14-32 32-32h704zM96 224v32h64v-32h-64zM224 224v32h384v-32h-384z" />
<glyph unicode="&#xf143;" glyph-name="ios-cash-outline" horiz-adv-x="896" d="M16 128v32h864v-32h-864zM32 64v32h832v-32h-832zM0 704h896v-512h-896v512zM864 224v448h-832v-448h832zM704 608v32h128v-32h-128zM704 256v32h128v-32h-128zM64 608v32h128v-32h-128zM64 256v32h128v-32h-128zM448 304c-80 0-144 64-144 144s64 144 144 144 144-64 144-144-64-144-144-144zM448 560c-62 0-112-50-112-112s50-112 112-112 112 50 112 112-50 112-112 112z" />
<glyph unicode="&#xf144;" glyph-name="ios-cash" horiz-adv-x="896" d="M16 128v32h864v-32h-864zM32 64v32h832v-32h-832zM448 560c62 0 112-50 112-112s-50-112-112-112-112 50-112 112 50 112 112 112zM0 704h896v-512h-896v512zM192 256v32h-128v-32h128zM192 608v32h-128v-32h128zM448 304c80 0 144 64 144 144s-64 144-144 144-144-64-144-144 64-144 144-144zM832 256v32h-128v-32h128zM832 608v32h-128v-32h128z" />
<glyph unicode="&#xf145;" glyph-name="ios-chatbubbles-outline" d="M766 254l32-116s2-4 2-6c0-8-8-16-16-16-4 0-8 2-8 2l-114 42c-6 2-12 4-20 4-6 0-12-2-18-4s-30-10-52-16-64-16-94-16c-192 0-342 154-342 338 0 24 4 46 8 68 32 152 172 266 340 266 192 0 348-150 348-334 0-66-22-128-56-180-2-2-2-4-4-6-4-8-6-18-6-26zM674 188l86-30c-10 32-26 82-26 98s2 28 10 40c2 4 4 4 6 6v2c32 48 50 104 50 162v0 0c0 78-30 152-86 208-30 30-64 54-102 70-40 16-84 24-128 24-38 0-74-6-108-18s-64-28-92-50c-56-44-94-106-108-172-4-20-8-42-8-62 0-40 8-80 24-118 16-36 38-70 66-98 58-58 136-90 220-90 26 0 60 6 88 14 10 2 22 8 30 10 0 0 18 6 22 8s16 4 24 4c12 0 22-4 32-8zM514 104c10 2 18 6 26 8s18 4 26 6c-8-10-14-18-14-18-60-70-146-110-240-110-42 0-84 8-122 24v0 0h-2c-4 2-6 2-10 2s-8 0-12-2l-112-44c-2 0-4-2-6-2-4 0-6 2-10 4-4 4-8 10-6 16l24 124c0 4-2 6-4 10v2l-2 2v2c-32 48-50 106-50 164 0 84 38 166 104 222l16 14c-2-8-6-18-8-26s-2-18-4-26c-54-60-76-126-76-186 0-52 16-102 44-146 2-2 4-2 4-4v-2c6-8 8-18 8-28v-4l-20-96 86 34c14 6 28 4 42 0h4l2-2c34-14 72-22 110-22 66 0 128 24 178 64 0 0 12 8 24 20z" />
<glyph unicode="&#xf146;" glyph-name="ios-chatbubbles" d="M766 254l32-116s2-4 2-6c0-8-8-16-16-16-4 0-8 2-8 2l-114 42c-6 2-12 4-20 4-6 0-12-2-18-4s-30-10-52-16-64-16-94-16c-192 0-342 154-342 338 0 24 4 46 8 68 32 152 172 266 340 266 192 0 348-150 348-334 0-66-22-128-56-180-2-2-2-4-4-6-4-8-6-18-6-26zM526 90c0 0 0-2 2-2zM540 112c8 2 18 4 26 6-8-10-14-18-14-18-60-70-146-112-240-112-42 0-84 10-122 24-8 4-12 4-12 4-4 0-8 0-12-2l-112-44c-2 0-4-2-6-2-4 0-6 2-10 4-4 4-8 10-6 16 0 0 24 120 24 124s-2 8-6 16c-32 48-50 106-50 164 0 84 38 164 104 222l16 14c-2-8-6-18-8-26s-2-18-4-26c-2-12-4-28-4-42 0-184 150-338 342-338 20 0 48 4 68 8 10 2 18 6 26 8z" />
<glyph unicode="&#xf147;" glyph-name="ios-checkbox-outline" horiz-adv-x="768" d="M304 182v0 0zM552 542l36-36-286-288-130 130 36 36 94-94zM736 736h-704v-704h704v704zM768 768v0-768h-768v768h768z" />
<glyph unicode="&#xf148;" glyph-name="ios-checkbox" horiz-adv-x="768" d="M0 768h768v-768h-768v768zM304 182v0 0zM302 218l286 288-36 36-250-252-94 94-36-36zM304 182v0 0z" />
<glyph unicode="&#xf149;" glyph-name="ios-checkmark-circle-outline" d="M584 542l36-36-268-270c-4-4-12-8-18-8s-14 4-18 8l-112 112 36 36 94-94zM416 800c230 0 416-186 416-416s-186-416-416-416-416 186-416 416 186 416 416 416zM416 2c210 0 382 172 382 382s-172 382-382 382-382-172-382-382 172-382 382-382z" />
<glyph unicode="&#xf14a;" glyph-name="ios-checkmark-circle" d="M416 800c230 0 416-186 416-416s-186-416-416-416-416 186-416 416 186 416 416 416zM352 236l268 270-36 36-250-252-94 94-36-36 112-112c4-4 12-8 18-8s14 4 18 8z" />
<glyph unicode="&#xf14b;" glyph-name="ios-clipboard-outline" horiz-adv-x="640" d="M288 704c0 18 14 32 32 32s32-14 32-32-14-32-32-32-32 14-32 32zM608 768c18 0 32-14 32-32v-736c0-18-14-32-32-32h-576c-18 0-32 14-32 32v736c0 18 14 32 32 32h184c-8-10-14-20-18-32h-150c-8 0-16-8-16-16v-704c0-8 8-16 16-16h544c8 0 16 8 16 16v704c0 8-8 16-16 16h-150c-4 12-10 22-18 32h184zM160 674c0 18 18 30 36 30h28c0 12 2 22 6 32 4 12 10 22 18 32 18 20 44 32 72 32s54-12 72-32c8-10 14-20 18-32 4-10 6-20 6-32h34c18 0 30-12 30-30v-34h96v-608h-512v608h96v34zM480 576h-320v32h-64v-544h448v544h-64v-32zM256 672h-64v-64h256v64h-64v32c0 36-28 64-64 64s-64-28-64-64v-32z" />
<glyph unicode="&#xf14c;" glyph-name="ios-clipboard" horiz-adv-x="640" d="M96 64v544h32v-64h384v64h32v-544h-448zM450 704c18 0 30-12 30-30v-98h-320v98c0 18 18 30 36 30h28c0 12 2 22 6 32 4 12 10 22 18 32 18 20 44 32 72 32s54-12 72-32c8-10 14-20 18-32 4-10 6-20 6-32h34zM320 672c18 0 32 14 32 32s-14 32-32 32-32-14-32-32 14-32 32-32zM512 674v0 0zM608 768c18 0 32-14 32-32v-736c0-18-14-32-32-32h-576c-18 0-32 14-32 32v736c0 18 14 32 32 32h184c-8-10-14-20-18-38h-6c-40 0-64-32-64-68v-22h-64v-608h512v608h-64v34c-2 34-30 62-64 62h-6c-4 12-10 22-18 32h184z" />
<glyph unicode="&#xf14d;" glyph-name="ios-close-circle-outline" d="M710 678c162-162 162-426 0-588s-426-162-588 0-162 426 0 588 426 162 588 0zM686 114c148 148 148 392 0 540s-392 148-540 0-148-392 0-540 392-148 540 0zM584 576l24-24-168-168 168-168-24-24-168 168-168-168-24 24 168 168-168 168 24 24 168-168z" />
<glyph unicode="&#xf14e;" glyph-name="ios-close-circle" d="M710 678c162-162 162-426 0-588s-426-162-588 0-162 426 0 588 426 162 588 0zM608 216l-168 168 168 168-24 24-168-168-168 168-24-24 168-168-168-168 24-24 168 168 168-168z" />
<glyph unicode="&#xf14f;" glyph-name="ios-closed-captioning-outline" horiz-adv-x="896" d="M896 64h-896v640h896v-640zM32 96h832v576h-832v-576zM476 116h-56c-72 0-162 0-228 6-72 6-114 48-118 120v16c-4 50-6 82-6 126 0 48 0 78 6 142 8 70 48 112 118 120 64 6 176 6 256 6s192 0 256-6c70-8 110-48 118-120 6-64 6-94 6-142 0-44-2-76-6-126v-16c-4-72-46-114-118-120-66-6-156-6-228-6zM448 148v0h28c70 0 160 0 224 6 56 6 86 34 90 90v16c4 50 6 82 6 124 0 48 0 78-6 140-6 56-34 84-90 90-62 6-172 6-252 6s-190 0-252-6c-56-6-84-34-90-90-6-62-6-92-6-140 0-42 2-74 6-124v-16c4-56 34-84 90-90 64-6 154-6 224-6h28zM612 540c-18 0-36-4-50-8-12-4-24-12-34-22s-18-24-24-44-10-48-10-82 2-62 8-84c4-20 14-34 22-44s16-16 28-20c14-4 32-6 52-6 40 0 68 8 84 26 12 12 18 30 22 54h-30c-4-14-10-26-20-36-14-16-34-24-56-24-42 0-76 32-80 80 0 4-2 22-2 52 0 34 2 56 2 56v0 0c4 24 12 42 24 56 14 16 34 24 56 24 36 0 66-24 76-60h28c-4 24-10 42-22 54-16 18-40 28-74 28zM612 572v0c44 0 76-14 98-38s32-64 32-108h-90v2c0 36-22 58-48 58-28 0-44-18-48-52 0 0-2-20-2-52s2-48 2-48c2-30 20-52 48-52s46 20 46 52v8h92c0-48-10-84-32-108s-58-38-108-38c-24 0-44 4-62 10s-30 16-42 30-20 32-26 56-10 56-10 92 4 66 12 90 16 44 30 58 30 24 48 30 38 10 60 10zM302 540c-18 0-36-4-50-8-12-4-24-12-34-22s-18-24-24-44-10-48-10-82 2-62 8-84c4-20 14-34 22-44s16-16 28-20c14-4 32-6 52-6 40 0 68 8 84 26 12 12 18 30 22 54h-30c-4-14-8-26-18-36-14-16-36-24-58-24-42 0-76 32-80 80 0 4-2 22-2 52 0 34 4 56 4 56v0 0c4 24 12 42 24 56 14 16 34 24 56 24 36 0 64-24 74-60h30c-4 24-12 42-24 54-16 18-40 28-74 28zM302 572v0c44 0 76-14 98-38s32-64 32-108h-90v2c0 36-22 58-48 58-28 0-44-18-48-52 0 0-2-20-2-52s2-48 2-48c2-30 20-52 48-52s46 20 46 52v8h92c0-48-10-84-32-108s-58-38-108-38c-24 0-42 4-60 10s-32 16-44 30-20 32-26 56-10 56-10 92 4 66 12 90 16 44 30 58 30 24 48 30 38 10 60 10z" />
<glyph unicode="&#xf150;" glyph-name="ios-closed-captioning" horiz-adv-x="896" d="M0 704h896v-640h-896v640zM796 384c0 48 0 78-6 140-6 56-34 84-90 90-62 6-172 6-252 6s-190 0-252-6c-56-6-84-34-90-90-6-62-6-92-6-140 0-42 2-74 6-124v-16c4-56 34-84 90-90 64-6 154-6 224-6h56c70 0 160 0 224 6 56 6 86 34 90 90v16c4 50 6 82 6 124zM612 572v0c44 0 76-14 98-38s32-64 32-108h-90v2c0 36-22 58-48 58-28 0-44-18-48-52 0 0-2-20-2-52s2-48 2-48c2-30 20-52 48-52s46 20 46 52v8h92c0-48-10-84-32-108s-58-38-108-38c-24 0-44 4-62 10s-30 16-42 30-20 32-26 56-10 56-10 92 4 66 12 90 16 44 30 58 30 24 48 30 38 10 60 10zM302 572v0c44 0 76-14 98-38s32-64 32-108h-90v2c0 36-22 58-48 58-28 0-44-18-48-52 0 0-2-20-2-52s2-48 2-48c2-30 20-52 48-52s46 20 46 52v8h92c0-48-10-84-32-108s-58-38-108-38c-24 0-42 4-60 10s-32 16-44 30-20 32-26 56-10 56-10 92 4 66 12 90 16 44 30 58 30 24 48 30 38 10 60 10z" />
<glyph unicode="&#xf151;" glyph-name="ios-cloud-circle-outline" d="M452 544c-40 0-78-20-98-52l-14-22s-10 4-18 8-18 6-24 6c-22 0-40-20-40-42v-22l-22-8c-26-8-44-34-44-62 0-16 6-32 18-44s24-18 40-18h332c16 0 28 6 40 18s18 28 18 44c0 30-22 56-50 60l-24 4-2 24c-4 30-16 56-36 76s-48 30-76 30zM452 576v0c76 0 136-58 144-134 44-8 76-46 76-92 0-52-42-94-92-94h-330c-50 0-90 42-90 94 0 42 26 82 66 94 0 40 32 72 72 72 10 0 22-4 30-8 26 40 72 68 124 68zM416 768c-52 0-102-10-150-30-46-20-86-46-122-82s-62-76-82-122c-20-48-30-98-30-150s10-102 30-150c20-46 46-86 82-122s76-62 122-82c48-20 98-30 150-30s102 10 150 30c46 20 86 46 122 82s62 76 82 122c20 48 30 98 30 150s-10 102-30 150c-20 46-46 86-82 122s-76 62-122 82c-48 20-98 30-150 30zM416 800v0c230 0 416-186 416-416s-186-416-416-416-416 186-416 416 186 416 416 416z" />
<glyph unicode="&#xf152;" glyph-name="ios-cloud-circle" d="M416 800c230 0 416-186 416-416s-186-416-416-416-416 186-416 416 186 416 416 416zM582 256c50 0 90 42 90 94 0 46-32 84-76 92-8 76-68 134-144 134-52 0-98-28-124-68-8 4-20 8-30 8-40 0-72-34-72-74-40-12-66-50-66-92 0-52 40-94 90-94h332z" />
<glyph unicode="&#xf153;" glyph-name="ios-cloud-done-outline" horiz-adv-x="896" d="M554 464l22-22-164-164c-4-4-8-6-12-6s-6 2-10 6l-70 68 22 22 58-58zM762 444c76-12 134-76 134-156 0-88-72-160-160-160h-576c-88 0-160 72-160 160 0 72 46 134 116 156 0 68 56 124 124 124 18 0 38-4 54-12 46 70 128 116 218 116 132 0 236-100 250-228zM736 160c70 0 128 58 128 128 0 30-10 58-30 82s-48 38-78 42l-24 4-2 24c-6 54-32 106-72 142-42 38-90 58-146 58-76 0-150-36-192-100l-16-24-24 12c-12 6-26 8-40 8-24 0-46-8-64-26s-28-42-28-66v-22l-22-8c-28-8-52-24-68-48s-26-50-26-78c0-70 58-128 128-128h576z" />
<glyph unicode="&#xf154;" glyph-name="ios-cloud-done" horiz-adv-x="896" d="M762 444c76-12 134-76 134-156 0-88-72-160-160-160h-576c-88 0-160 72-160 160 0 72 46 134 116 156 0 68 56 124 124 124 18 0 38-4 54-12 46 70 128 116 218 116 132 0 236-100 250-228zM412 278l164 164-22 22-154-154-58 58-22-22 70-68c4-4 6-6 10-6s8 2 12 6z" />
<glyph unicode="&#xf155;" glyph-name="ios-code-download" horiz-adv-x="768" d="M512 576l28 26 228-218-228-218-28 26 200 192zM256 576l-200-192 200-192-28-26-228 218 228 218zM510 384l22-22-148-138-148 138 22 22 110-96v256h32v-256z" />
<glyph unicode="&#xf156;" glyph-name="ios-code-working" horiz-adv-x="768" d="M512 576l28 26 228-218-228-218-28 26 200 192zM256 576l-200-192 200-192-28-26-228 218 228 218zM352 384c0 18 14 32 32 32s32-14 32-32-14-32-32-32-32 14-32 32zM224 384c0 18 14 32 32 32s32-14 32-32-14-32-32-32-32 14-32 32zM480 384c0 18 14 32 32 32s32-14 32-32-14-32-32-32-32 14-32 32z" />
<glyph unicode="&#xf157;" glyph-name="ios-code" horiz-adv-x="768" d="M512 576l28 26 228-218-228-218-28 26 200 192zM256 576l-200-192 200-192-28-26-228 218 228 218z" />
<glyph unicode="&#xf158;" glyph-name="ios-color-fill-outline" d="M726 296c0 0-14 2-34 2s-46-2-58-14c-22-22-292-284-292-284l-342 330 210 208-98 98c-38 38-38 98 0 136v0c18 18 44 28 68 28s48-10 66-28l114-112zM134 658l98-98 92 90-100 100c-12 12-28 18-46 18s-32-6-44-18-18-28-18-46 6-34 18-46zM612 306c10 10 22 16 38 20l-304 302-300-298 296-286c64 64 252 244 270 262zM736 224c0 0 96-106 96-160 0-52-44-96-96-96v0c-52 0-96 42-96 96s96 160 96 160zM782 18c12 12 18 28 18 46 0 4-2 26-42 82-8 10-16 20-22 28-8-8-14-20-22-30-40-56-42-76-42-80 0-36 28-64 64-64 16 0 34 6 46 18z" />
<glyph unicode="&#xf159;" glyph-name="ios-color-fill" d="M726 296c0 0-14 2-34 2s-46-2-58-14c-22-22-292-284-292-284l-342 330 210 208-98 98c-38 38-38 98 0 136v0c18 18 44 28 68 28s48-10 66-28l114-112zM134 658l98-98 92 90-100 100c-12 12-28 18-46 18s-32-6-44-18-18-28-18-46 6-34 18-46zM736 224c0 0 96-106 96-160 0-52-44-96-96-96v0c-52 0-96 42-96 96s96 160 96 160z" />
<glyph unicode="&#xf15a;" glyph-name="ios-color-palette-outline" horiz-adv-x="768" d="M442 736c-108 0-216-40-296-112-38-34-66-70-86-114-18-42-28-86-28-130s8-88 28-130c20-44 48-82 86-116 38-32 82-58 132-76 48-16 102-26 154-26h2c106 0 208 34 278 96 8 6 8 16 8 22 0 10-4 20-10 26s-18 8-30 10h-2c-28 4-44 12-62 28-20 18-32 42-32 68s12 50 32 68l62 54c38 34 58 76 58 124s-20 92-58 126c-60 52-144 82-236 82zM442 768v0c96 0 188-30 256-90 92-82 92-216 0-298l-60-54c-28-26-28-62 0-88 14-12 20-16 44-20 16-2 36-6 50-18 24-22 28-70 0-96-78-68-188-104-298-104h-2c-110 0-222 36-306 110-168 148-168 390 0 538 90 80 204 120 316 120zM512 608c-18 0-32-14-32-32s14-32 32-32 32 14 32 32-14 32-32 32zM512 640v0c36 0 64-28 64-64s-28-64-64-64-64 28-64 64 28 64 64 64zM320 630c-18 0-32-14-32-32s14-32 32-32 32 14 32 32-14 32-32 32zM320 662v0c36 0 64-28 64-64s-28-64-64-64-64 28-64 64 28 64 64 64zM176 496c-18 0-32-14-32-32s14-32 32-32 32 14 32 32-14 32-32 32zM176 528v0c36 0 64-28 64-64s-28-64-64-64-64 28-64 64 28 64 64 64zM192 308c-18 0-32-14-32-32s14-32 32-32 32 14 32 32-14 32-32 32zM192 340v0c36 0 64-28 64-64s-28-64-64-64-64 28-64 64 28 64 64 64zM464 96c-52 0-96 44-96 96s44 96 96 96 96-44 96-96-44-96-96-96zM464 256c-36 0-64-28-64-64s28-64 64-64 64 28 64 64-28 64-64 64z" />
<glyph unicode="&#xf15b;" glyph-name="ios-color-palette" horiz-adv-x="768" d="M732 200c24-22 28-70 0-96-78-68-188-104-298-104h-2c-110 0-222 36-306 110-168 148-168 390 0 538 90 80 204 120 316 120 96 0 188-30 256-90 92-82 92-216 0-298l-60-54c-28-26-28-62 0-88 14-12 22-16 46-20 16-2 34-6 48-18zM112 464c0-36 28-64 64-64s64 28 64 64-28 64-64 64-64-28-64-64zM192 212c36 0 64 28 64 64s-28 64-64 64-64-28-64-64 28-64 64-64zM320 534c36 0 64 28 64 64s-28 64-64 64-64-28-64-64 28-64 64-64zM464 96c52 0 96 44 96 96s-44 96-96 96-96-44-96-96 44-96 96-96zM512 512c36 0 64 28 64 64s-28 64-64 64-64-28-64-64 28-64 64-64z" />
<glyph unicode="&#xf15c;" glyph-name="ios-compass-outline" d="M416 800c230 0 416-186 416-416s-186-416-416-416-416 186-416 416 186 416 416 416zM416 2c210 0 382 172 382 382s-172 382-382 382-382-172-382-382 172-382 382-382zM352 448l320 192-192-320-320-192zM254 222l202 122-80 80z" />
<glyph unicode="&#xf15d;" glyph-name="ios-compass" d="M456 344l-202-122 122 202zM416 800c230 0 416-186 416-416s-186-416-416-416-416 186-416 416 186 416 416 416zM480 320l192 320-320-192-192-320z" />
<glyph unicode="&#xf15e;" glyph-name="ios-construct-outline" horiz-adv-x="962" d="M244 44c-12-10-28-10-40 0-10 12-10 28 0 40 12 10 28 10 40 0 10-12 10-30 0-40zM728 768v0 0zM394 414l16-16c-8-8-16-14-24-22-36 36-26 28-26 28-4 4-6 12-2 20l8 12c-50 50-78 76-102 82-8 2-14 4-22 4-20 0-36-6-44-14s-24-32-10-46l24-24c4-4 4-12 0-16l-66-70c-2-2-6-2-8-2s-6 0-8 2l-126 128c-4 4-4 10 0 14l68 68c2 2 6 4 8 4 0 0 34-16 50 0s0 40 12 58 32 38 46 52 70 68 162 106c32 14 66 18 94 18 30 0 56-6 74-18 12-8 38-26 22-26 0 0-72 12-122-30-36-32-58-62-60-106s12-68 68-124l12 6c2 2 6 2 8 2 4 0 10-2 12-4 0 0-8 10 30-28-8-6-16-14-24-22-20 18-12 10-18 16zM388 460l4-4 14 16-2 2c-58 56-80 90-78 148 2 48 26 90 72 128v0 0c10 8 20 14 34 18-24 0-46-6-70-16-78-32-128-76-152-98-12-12-30-32-42-48v-10c0-14 4-36-14-54-14-12-34-20-60-20l-14 2-40-38 92-90 40 38c-12 12-26 20-26 40 0 18 18 50 38 64 18 12 34 16 58 16 12 0 20-2 30-4 32-8 60-34 108-82zM856 86c-40 32-146 124-244 218 8 8 16 16 22 24 122-116 260-232 260-232 4-4 4-12 0-16l-110-110c-2-2-6-2-8-2s-6 0-8 2c0 0-112 134-230 256 8 8 14 16 22 24 94-98 186-202 218-240zM928 646c26-26 36-58 34-82s-12-72-60-120c-34-34-90-60-144-60-22 0-46 6-66 16-4 2-10 4-16 4s-14-2-22-10c-4-4-18-20-42-44-6-8-14-16-22-24-16-16-34-34-52-54-8-8-14-16-22-24-108-114-240-254-240-254-16-18-36-26-58-26s-46 10-62 26c-34 34-36 90 0 122 0 0 140 130 254 238l22 22c20 18 38 36 54 52 8 8 16 16 24 22 26 24 40 40 44 42 14 14 10 30 6 40-38 88 4 166 44 208 42 44 96 58 120 60h4c24 0 56-12 78-34l-104-104 18-102 102-20zM930 566c0 4 0 16-6 30l-78-80-12-10-16 2-124 22-4 22-20 104-2 16 90 90c-10 4-20 6-28 6h-4c-20 0-64-14-98-50v0 0c-18-20-74-88-38-174v0 0c2-6 6-18 6-32 0-12-2-28-18-44v0 0c-16-16-384-362-400-376h-2c-12-10-14-24-14-34 0-16 6-30 16-42 10-10 26-16 40-16 8 0 22 2 34 16h2c14 16 360 382 378 400 16 16 32 20 44 20 14 0 24-4 32-8v0 0c14-8 30-12 50-12 44 0 92 20 122 50 38 38 48 76 50 100z" />
<glyph unicode="&#xf15f;" glyph-name="ios-construct" horiz-adv-x="962" d="M728 768v0 0zM518 782c12-8 38-26 22-26 0 0-72 12-122-30-36-32-58-62-60-106s12-68 68-124l12 6c2 2 6 2 8 2 4 0 10-2 12-4 0 0-8 10 30-28l-102-96c-36 36-26 28-26 28-4 4-6 12-2 20l8 12c-50 50-78 76-102 82-8 2-14 4-22 4-20 0-36-6-44-14s-24-32-10-46l24-24c4-4 4-12 0-16l-66-70c-2-2-6-2-8-2s-6 0-8 2l-126 128c-4 4-4 10 0 14l68 68c2 2 6 4 8 4 0 0 34-16 50 0s0 40 12 58 32 38 46 52 70 68 162 106c32 14 66 18 94 18 30 0 56-6 74-18zM894 96c4-4 4-12 0-16l-110-110c-2-2-6-2-8-2s-6 0-8 2c0 0-112 134-230 256l96 102c122-116 260-232 260-232zM928 646c26-26 36-58 34-82s-12-72-60-120c-34-34-90-60-144-60-22 0-46 6-66 16-4 2-10 4-16 4s-14-2-22-10c-4-4-18-20-42-44-6-8-14-16-22-24-16-16-34-34-52-54-8-8-14-16-22-24-108-114-240-254-240-254-16-18-36-26-58-26s-46 10-62 26c-34 34-36 90 0 122 0 0 140 130 254 238l22 22c20 18 38 36 54 52 8 8 16 16 24 22 26 24 40 40 44 42 14 14 10 30 6 40-38 88 4 166 44 208 42 44 96 58 120 60h4c24 0 56-12 78-34l-104-104 18-102 102-20zM244 44c10 10 10 28 0 40-12 10-28 10-40 0-10-12-10-28 0-40 12-10 28-10 40 0z" />
<glyph unicode="&#xf160;" glyph-name="ios-contacts-outline" d="M416 800c230 0 416-186 416-416s-186-416-416-416-416 186-416 416 186 416 416 416zM416 2c52 0 102 12 146 30 0 42-4 80-4 80-8 30-34 54-60 66s-56 8-82 18-52 18-58 50c-4 22-2 44-2 66 0 4 14 14 16 18 6 10 8 22 10 34 2 10 0 24 8 30 10 8 12 14 16 26 4 16 8 24 0 38-6 10-2 16 0 26 6 22 8 48 4 72-16 74-122 90-170 38-24-26-26-62-20-94 2-12 12-28 6-38-2-6-10-12-8-20 4-10 6-22 10-32 4-8 6-12 12-16s8-12 8-18 2-34 10-46c6-8 18-12 18-22 0-14-2-28-2-42-2-16-2-36-14-48-14-12-38-20-56-24-22-6-46-6-66-14-12-4-22-10-32-18 6-8 12-14 18-22l22-26c70-68 166-112 270-112zM708 140c10 12 22 26 30 40-4 44-30 58-46 62-4 0-6 2-12 2-20 4-46 10-62 28-14 16-12 38-10 52l4 36c26-4 52 0 52 0v0c-8 28-6 58-6 84v28c0 22-4 52-24 64-6 4-22 8-46 8-14 0-30-2-38-6v0 0c-16-6-24-14-28-30-6-18-6-42-6-66 0-28 0-58-8-84 0 0 30-4 54-2 0 0 4-52 2-68s-10-20-24-26-34-8-48-18c-20 6-50 10-50 10 28 14 50 22 58 24s30 8 32 18v28c-42 4-58 12-58 12-12 6-4 12 0 22 28 64-20 176 64 210 14 6 30 8 50 8 24 0 46-4 62-14 30-18 40-54 40-88 0-40-8-88 14-124 4-6 8-8 0-12 0 0-12-10-62-12 0 0-4-26 2-34 12-14 42-14 58-20 26-8 50-28 58-54 24 50 38 106 38 166 0 210-172 382-382 382s-382-172-382-382c0-72 20-138 54-196l2 2c30 22 64 24 100 32 14 2 46 10 50 26s4 30 4 46c0 6-2 6-6 10-8 8-12 18-16 28-4 16-6 32-8 48-18-4-20 32-24 42-2 8-4 38 8 44-6 10-8 24-10 36-4 26-4 52 6 78 20 52 72 78 126 76 52-2 104-30 120-82 8-24 6-54 2-80-2-10-6-20-10-28 16-6 8-42 6-48-4-10-4-42-22-38-2-20-4-44-14-62-2-4-16-16-16-20v-22c0-10 0-20 4-30s20-14 28-16c28-10 56-10 84-20 56-20 90-70 90-130l2-32c34 18 64 40 90 66l24 26z" />
<glyph unicode="&#xf161;" glyph-name="ios-contacts" d="M416 800c230 0 416-186 416-416s-186-416-416-416-416 186-416 416 186 416 416 416zM592 80l2-32c12 6 22 10 32 18 0 52-6 94-42 128-40 38-92 50-92 50-20 6-50 10-50 10 28 14 50 22 58 24s30 8 32 18v28c-42 4-58 12-58 12-12 6-4 12 0 22 28 64-20 176 64 210 14 6 30 8 50 8 24 0 46-4 62-14 30-18 40-54 40-88 0-40-8-88 14-124 4-6 8-8 0-12 0 0-12-10-62-12 0 0-4-26 2-34 12-14 42-14 58-20 26-8 50-28 58-54 24 50 38 106 38 166 0 210-172 382-382 382s-382-172-382-382c0-72 20-138 54-196l2 2c30 22 64 24 100 32 14 2 46 10 50 26s4 30 4 46c0 6-2 6-6 10-8 8-12 18-16 28-4 16-6 32-8 48-18-4-20 32-24 42-2 8-4 36 8 42-6 10-8 26-10 38-4 26-4 52 6 78 20 52 72 78 126 76 52-2 104-32 120-84 8-24 6-52 2-78-2-10-6-22-10-30 16-6 8-40 6-46-4-10-4-42-22-38-2-20-4-44-14-62-2-4-16-16-16-20v-22c0-10 0-20 4-30s20-14 28-16c28-10 56-10 84-20 56-20 90-70 90-130z" />
<glyph unicode="&#xf162;" glyph-name="ios-contract" horiz-adv-x="768" d="M264 480l-264 266 22 22 266-264v200h32v-256h-256v32h200zM504 480h200v-32h-256v256h32v-200l266 264 22-22zM264 288h-200v32h256v-256h-32v200l-266-264-22 22zM504 288l264-266-22-22-266 264v-200h-32v256h256v-32h-200z" />
<glyph unicode="&#xf163;" glyph-name="ios-contrast" d="M416 800c230 0 416-186 416-416s-186-416-416-416-416 186-416 416 186 416 416 416zM688 112c36 36 62 76 82 122 20 48 30 98 30 150s-10 102-30 150c-20 46-46 86-82 122s-76 62-122 82c-48 20-98 30-150 30v-768c52 0 102 10 150 30 46 20 86 46 122 82z" />
<glyph unicode="&#xf164;" glyph-name="ios-create-outline" horiz-adv-x="768" d="M608 64v416l32 32v-480h-640v608h512l-32-32h-448v-544h576zM348 328l342 342 22-22-360-360h-64v64l360 360 22-22-342-342zM760 736c4-6 8-12 8-20s-4-14-8-20l-24-24-64 64 24 24c6 4 12 8 20 8s14-4 20-8z" />
<glyph unicode="&#xf165;" glyph-name="ios-create" horiz-adv-x="768" d="M384 256l256 256v-480h-640v608h512l-256-256v-128h128zM648 712l64-64-360-360h-64v64zM760 736c4-6 8-12 8-20s-4-14-8-20l-24-24-64 64 24 24c6 4 12 8 20 8s14-4 20-8z" />
<glyph unicode="&#xf166;" glyph-name="ios-crop-outline" horiz-adv-x="768" d="M128 672v96h32v-96h-32zM160 160h416v-32h-448v448h32v-416zM672 128v32h96v-32h-96zM0 640h640v-640h-32v608h-608v32z" />
<glyph unicode="&#xf167;" glyph-name="ios-cube-outline" horiz-adv-x="896" d="M448 832l448-192v-448l-448-256-448 256v448zM844 628l-396 172-394-172 394-224zM32 604v-394l400-228v394zM464-18l400 228v392l-400-226v-394z" />
<glyph unicode="&#xf168;" glyph-name="ios-cube" horiz-adv-x="896" d="M878 648l-430-246-430 246 430 184zM464-56v430l432 248v-430zM0 622l432-248v-430l-432 248v430z" />
<glyph unicode="&#xf169;" glyph-name="ios-cut-outline" horiz-adv-x="720" d="M104 624c16-42 98-154 150-226-6-10-12-18-18-28l-6 6c-70 96-138 194-154 236-14 36-22 64-22 92 0 36 14 70 38 88 8 6 20 8 38 8l210-282-20-26-206 276c-38-34-32-88-10-144zM628 786c24-22 38-46 38-82 0-26-8-56-22-92-20-48-128-204-180-270s-76-84-76-84l-28-18c-14-8-40-28-58-56-28-46-50-110-52-116-8-28-24-52-44-70-22-20-50-30-78-30-34 0-68 16-92 44-24 26-36 62-36 98s12 72 36 98c24 28 56 44 92 44 24 0 48-8 68-22l20 40c6 14 14 30 22 44 4 8 10 18 18 30 6 10 12 18 18 28 16 24 30 44 30 46v0l36 48 20 26 228 308c12 0 30-4 40-14zM614 624c22 56 30 110-8 144l-276-368s-48-68-64-100-32-68-46-94c-8-16-16-22-20-22-2 0-2 0-4 2l-4 4c-2 2-4 6-8 8-16 14-34 22-56 22-52 0-96-50-96-110s44-110 96-110c44 0 78 32 90 78v0s24 70 56 122 86 74 86 74 26 24 54 56 178 238 200 294zM592 252c70 0 128-64 128-142s-58-142-128-142c-28 0-56 10-78 30-20 18-36 42-44 70-2 6-24 70-52 116-10 14-20 24-30 34l26 20c10-10 20-24 30-38 32-52 56-122 56-122v0c12-46 48-78 92-78 52 0 96 50 96 110s-44 110-96 110c-22 0-42-8-58-22-4-2-6-6-8-8v0l-2-4c-2-2-4-2-6-2-4 0-10 6-18 22-12 22-26 50-40 78l22 28c8-14 14-28 20-42 8-16 16-28 22-40 20 14 44 22 68 22zM128 54c-26 0-48 26-48 56s22 56 48 56 48-26 48-56-22-56-48-56zM328 352c0 18 14 32 32 32s32-14 32-32-14-32-32-32-32 14-32 32zM592 54c-26 0-48 26-48 56s22 56 48 56 48-26 48-56-22-56-48-56z" />
<glyph unicode="&#xf16a;" glyph-name="ios-cut" horiz-adv-x="720" d="M464 342c-50-66-76-84-76-84l-28-18c-14-8-40-28-58-56-28-46-50-110-52-116-8-28-24-52-44-70-22-20-50-30-78-30-34 0-68 16-92 44-24 26-36 62-36 98s12 72 36 98c24 28 56 44 92 44 24 0 48-8 68-22l20 40c6 14 14 30 22 44 4 8 10 18 18 30 6 10 12 18 18 28 16 24 30 44 30 46v0l36 48 20 26 228 308c12 0 30-4 40-14 24-22 38-46 38-82 0-26-8-56-22-92-20-48-128-204-180-270zM128 54c26 0 48 26 48 56s-22 56-48 56-48-26-48-56 22-56 48-56zM360 320c18 0 32 14 32 32s-14 32-32 32-32-14-32-32 14-32 32-32zM232 376c-70 96-138 194-156 236-14 36-22 64-22 92 0 36 14 70 38 88 8 6 20 8 38 8l210-282-94-130c-4-6-6-12-10-18-2 2-2 4-4 6zM592 252c70 0 128-64 128-142s-58-142-128-142c-28 0-56 10-78 30-20 18-36 42-44 70-2 6-24 70-52 116-10 14-20 24-30 34l72 66 22 28c8-14 14-28 20-42 8-16 16-28 22-40 20 14 44 22 68 22zM592 54c26 0 48 26 48 56s-22 56-48 56-48-26-48-56 22-56 48-56z" />
<glyph unicode="&#xf16b;" glyph-name="ios-desktop-outline" horiz-adv-x="960" d="M960 128h-352v-32h128v-32h-514v32h128v32h-350v576h960v-576zM32 672v-512h896v512h-896z" />
<glyph unicode="&#xf16c;" glyph-name="ios-desktop" horiz-adv-x="960" d="M960 128h-352v-32h128v-32h-514v32h128v32h-350v576h960v-576zM32 672v-512h896v512h-896zM64 192v448h832v-448h-832z" />
<glyph unicode="&#xf16d;" glyph-name="ios-disc-outline" d="M416 532c-82 0-148-66-148-148 0-40 16-78 44-106s64-42 104-42c82 0 148 66 148 148s-66 148-148 148zM416 272c-62 0-112 50-112 112s50 112 112 112 112-50 112-112-50-112-112-112zM416 564v0c100 0 180-80 180-180s-80-180-180-180-180 80-180 180 80 180 180 180zM416 304v0c44 0 80 36 80 80s-36 80-80 80-80-36-80-80 36-80 80-80zM416 768c-52 0-102-10-150-30-46-20-86-46-122-82s-62-76-82-122c-20-48-30-98-30-150s10-102 30-150c20-46 46-86 82-122s76-62 122-82c48-20 98-30 150-30s102 10 150 30c46 20 86 46 122 82s62 76 82 122c20 48 30 98 30 150s-10 102-30 150c-20 46-46 86-82 122s-76 62-122 82c-48 20-98 30-150 30zM416 124c-70 0-134 28-184 76s-76 114-76 184 28 134 76 184 114 76 184 76 134-28 184-76 76-114 76-184-28-134-76-184-114-76-184-76zM416 800v0c230 0 416-186 416-416s-186-416-416-416-416 186-416 416 186 416 416 416zM416 156v0c126 0 228 102 228 228s-102 228-228 228-228-102-228-228 102-228 228-228z" />
<glyph unicode="&#xf16e;" glyph-name="ios-disc" d="M416 564c100 0 180-80 180-180s-80-180-180-180-180 80-180 180 80 180 180 180zM416 304c44 0 80 36 80 80s-36 80-80 80-80-36-80-80 36-80 80-80zM416 800c230 0 416-186 416-416s-186-416-416-416-416 186-416 416 186 416 416 416zM416 156c126 0 228 102 228 228s-102 228-228 228-228-102-228-228 102-228 228-228z" />
<glyph unicode="&#xf16f;" glyph-name="ios-document-outline" horiz-adv-x="512" d="M288 768l224-224v-544h-512v768h288zM288 722v-178h180zM32 32h448v480h-224v224h-224v-704z" />
<glyph unicode="&#xf170;" glyph-name="ios-document" horiz-adv-x="512" d="M512 544h-224v224l224-224zM256 768v-256h256v-512h-512v768h256z" />
<glyph unicode="&#xf171;" glyph-name="ios-done-all" horiz-adv-x="512" d="M478 532l34-36-246-252c-4-4-10-8-16-8s-14 4-18 8l-110 112 36 36 92-94zM34 392l128-130-18-18c-4-4-12-8-18-8s-12 4-16 8l-110 112zM340 516l34-36-124-126-34 34z" />
<glyph unicode="&#xf172;" glyph-name="ios-easel-outline" horiz-adv-x="896" d="M864 704h-832v-512h832v512zM864 736v0c18 0 32-14 32-32v-512c0-18-14-32-32-32h-832c-18 0-32 14-32 32v512c0 18 14 32 32 32h832zM704 128h32l66-160h-34zM162 128h32l-64-160h-34zM432 32v96h32v-96h-32zM800 640h-704v-384h704v384zM832 672v0-448h-768v448h768zM448 800c18 0 32-14 32-32h-64c0 18 14 32 32 32z" />
<glyph unicode="&#xf173;" glyph-name="ios-easel" horiz-adv-x="896" d="M704 128h32l66-160h-34zM162 128h32l-64-160h-34zM432 32v96h32v-96h-32zM96 256v384h704v-384h-704zM864 736c18 0 32-14 32-32v-512c0-18-14-32-32-32h-832c-18 0-32 14-32 32v512c0 18 14 32 32 32h832zM832 224v448h-768v-448h768zM448 800c18 0 32-14 32-32h-64c0 18 14 32 32 32z" />
<glyph unicode="&#xf174;" glyph-name="ios-egg-outline" horiz-adv-x="640" d="M320 800c-24 0-52-14-84-38-34-26-68-66-98-112-32-48-58-102-76-158-20-60-30-118-30-174 0-58 8-108 22-154 14-42 32-78 58-108 24-28 56-52 90-66 36-14 74-22 118-22s82 8 118 22c34 14 66 38 90 66 26 30 44 66 58 108 14 44 22 96 22 154 0 56-10 114-30 174-18 56-44 110-76 158-30 46-64 86-98 112-32 24-60 38-84 38zM320 832v0c128 0 320-266 320-514s-128-382-320-382-320 134-320 382 192 514 320 514z" />
<glyph unicode="&#xf175;" glyph-name="ios-egg" horiz-adv-x="640" d="M320 832v0c128 0 320-266 320-514s-128-382-320-382-320 134-320 382 192 514 320 514z" />
<glyph unicode="&#xf176;" glyph-name="ios-exit-outline" horiz-adv-x="768" d="M128 448v256h640v-640h-640v256h32v-224h576v576h-576v-224h-32zM468 510l24 22 148-148-148-148-24 22 110 110h-578v32h578z" />
<glyph unicode="&#xf177;" glyph-name="ios-exit" horiz-adv-x="768" d="M128 704h640v-640h-640v304h450l-110-110 24-22 148 148-148 148-24-22 110-110h-450v304zM0 368v32h128v-32h-128z" />
<glyph unicode="&#xf178;" glyph-name="ios-expand" horiz-adv-x="768" d="M56 736l264-266-22-22-266 264v-200h-32v256h256v-32h-200zM712 736h-200v32h256v-256h-32v200l-266-264-22 22zM56 32h200v-32h-256v256h32v-200l266 264 22-22zM712 32l-264 266 22 22 266-264v200h32v-256h-256v32h200z" />
<glyph unicode="&#xf179;" glyph-name="ios-eye-off-outline" horiz-adv-x="768" d="M112 816l28 16 516-880-28-16zM384 608c170 0 296-122 384-224-56-58-130-138-222-184l-12 22c80 40 144 108 198 162-86 96-200 200-348 200-20 0-40-2-58-6l-14 22c24 4 48 8 72 8zM384 184c20 0 40 2 58 6l14-22c-22-4-48-8-72-8-172 0-268 106-384 224 78 82 150 144 222 182l12-22c-64-34-126-88-198-160 104-108 196-200 348-200zM498 284l-14 24c18 22 28 48 28 76 0 68-58 124-128 124h-16l-14 22c10 2 20 4 30 4 84 0 154-68 154-150 0-38-16-74-40-100zM270 484l14-24c-18-22-28-48-28-76 0-68 58-124 128-124h16l14-22c-10-2-20-4-30-4-84 0-154 68-154 150 0 38 16 74 40 100zM304 424l18-28c0-4-2-8-2-12 0-28 18-50 42-58l18-30c-48 2-86 42-86 88 0 14 4 28 10 40zM464 344l-18 28c0 4 2 8 2 12h26c0-14-4-28-10-40z" />
<glyph unicode="&#xf17a;" glyph-name="ios-eye-off" horiz-adv-x="768" d="M112 816l28 16 516-880-28-16zM384 608c170 0 296-120 384-224-56-58-130-138-222-184l-48 84c24 26 40 62 40 100 0 82-70 150-154 150-10 0-20-2-30-4l-42 70c24 4 48 8 72 8zM384 234c10 0 20 2 30 4l42-70c-22-4-48-8-72-8-172 0-268 106-384 224 78 82 150 144 222 182l48-82c-24-26-40-62-40-100 0-82 70-150 154-150zM474 390v-6c0-14-4-28-10-40l-24 40h8c8 0 18 2 26 6zM304 424l76-128c-48 2-86 42-86 88 0 14 4 28 10 40z" />
<glyph unicode="&#xf17b;" glyph-name="ios-female" d="M496 800c186 0 336-150 336-336s-150-336-336-336c-88 0-166 34-226 88l-120-120 86-84c6-6 6-18 0-24-4-4-8-4-12-4s-8 0-12 4l-84 86-100-102c-4-4-8-4-12-4s-8 0-12 4c-6 6-6 18 0 24l102 100-86 84c-6 6-6 18 0 24s18 6 24 0l84-86 120 120c-54 60-88 138-88 226 0 186 150 336 336 336zM710 248c58 58 90 134 90 216s-32 158-90 216-132 88-214 88-158-30-216-88-88-134-88-216 30-158 88-216 134-88 216-88 156 30 214 88z" />
<glyph unicode="&#xf17c;" glyph-name="ios-finger-print" d="M816 348h-2c-8 0-14 8-14 16v22c0 86-36 192-82 238-6 6-6 16 0 22s16 6 22 0c52-52 92-166 92-260v-22c0-8-8-16-16-16zM668 674c-4 0-6 2-10 4-72 60-156 90-242 90-82 0-160-24-224-70-8-6-16-4-22 4s-4 16 4 22c70 50 152 76 242 76 94 0 184-34 262-98 6-6 8-16 2-22-4-4-8-6-12-6zM46 192c-6 0-12 4-14 12-20 64-32 116-32 182 0 100 36 198 102 274 6 6 16 6 22 0s8-16 2-22c-60-70-94-160-94-252 0-62 12-114 30-174 2-8-2-18-10-20h-6zM148 48v0c-8 0-16 10-16 18 6 98 0 134-10 178-6 32-16 70-20 136-6 86 24 168 80 228 60 64 144 98 240 98 72 0 138-26 192-72 52-46 92-110 114-188 24-86 32-194 20-314 0-8-10-14-18-14s-14 10-14 18c12 116 4 220-20 302-20 72-56 130-104 172s-106 64-170 64c-88 0-164-30-218-88-50-54-76-128-70-204 4-64 12-100 18-132 10-46 18-84 12-186 0-8-8-16-16-16zM242 0h-2c-8 2-16 10-14 18 16 112-2 238-20 344-12 68 2 126 38 170 38 46 104 72 172 72 58 0 110-22 150-66s68-106 80-180c10-64 14-114 14-156 0-86-10-156-10-158-2-8-10-16-18-14s-14 10-12 18c0 0 10 70 10 154 0 40-6 90-16 152-22 134-98 218-198 218-60 0-116-24-148-62-30-36-40-84-30-142 18-110 36-236 20-354-2-8-8-14-16-14zM536-10h-2c-8 2-16 10-14 18 8 36 6 76 6 76 0 8 8 16 16 16v0c8 0 16-8 16-16 0-2 2-40-6-80-2-8-8-14-16-14zM336-26h-2c-8 2-16 10-14 18 14 112 10 234-16 364-12 60 4 96 20 114 20 24 50 38 88 38 58 0 102-42 122-114 16-56 22-136 24-232 0-8-8-16-16-16v0c-8 0-16 8-16 16-2 92-10 170-24 224-22 82-70 90-90 90-28 0-50-10-64-26-16-20-20-48-12-86 26-134 32-260 16-376 0-8-8-14-16-14zM436-32h-2c-8 0-14 10-14 18 16 142 4 330-26 402-4 8 0 16 8 20s18 0 22-8c32-76 44-268 28-418 0-8-8-14-16-14z" />
<glyph unicode="&#xf17d;" glyph-name="ios-flash-outline" horiz-adv-x="452" d="M262 632l-200-280h168l-6-38-34-178 200 280h-168l6 38zM320 768v0l-60-320h192l-320-448 60 320h-192z" />
<glyph unicode="&#xf17e;" glyph-name="ios-flash" horiz-adv-x="452" d="M320 768v0l-60-320h192l-320-448 60 320h-192z" />
<glyph unicode="&#xf17f;" glyph-name="ios-folder-open-outline" horiz-adv-x="896" d="M848 576c30 0 50-18 48-60s-48-466-48-466c-4-34-20-50-46-50h-704c-26 0-44 14-50 50 0 0-44 440-48 478s22 48 48 48h16v146c0 26 22 46 50 46h192c16 0 24-4 34-14v0l46-46c4-4 6-4 12-4h388c26 0 46-20 46-46v-82h16zM96 722v-146h704v82c0 8-6 14-14 14h-388c-14 0-26 4-36 14l-44 46c-4 4-4 4-12 4h-192c-8 0-18-6-18-14zM816 50l48 478c0 8-8 16-16 16h-800c-8 0-16-8-16-16l48-478c2-12 12-18 20-18h700c8 0 14 8 16 18z" />
<glyph unicode="&#xf180;" glyph-name="ios-folder-open" horiz-adv-x="896" d="M832 658v-50h-768v114c0 26 22 46 50 46h192c16 0 24-4 34-14v0l46-46c4-4 6-4 12-4h388c26 0 46-20 46-46zM64 576h784c30 0 50-20 48-60-2-42-48-466-48-466-4-34-20-50-46-50h-704c-26 0-44 14-50 50 0 0-44 440-48 478s22 48 48 48h16z" />
<glyph unicode="&#xf181;" glyph-name="ios-funnel-outline" horiz-adv-x="896" d="M0 768h896v-64l-352-384v-320l-192 64v256l-352 384v64zM864 716v20h-832v-20l352-384v-244l128-44v288z" />
<glyph unicode="&#xf182;" glyph-name="ios-funnel" horiz-adv-x="896" d="M0 768h896v-64l-352-384v-320l-192 64v256l-352 384v64z" />
<glyph unicode="&#xf183;" glyph-name="ios-git-branch" horiz-adv-x="640" d="M640 576c0-66-48-120-112-128v0c0-56-26-104-72-140-48-36-108-54-150-62-68-12-104-50-118-70 40-22 68-64 68-112 0-70-58-128-128-128s-128 58-128 128c0 64 48 118 110 126v388c-62 8-110 62-110 126 0 70 58 128 128 128s128-58 128-128c0-66-50-120-114-128v-384c6 0 10-2 16-4 16 22 58 74 144 90 38 6 92 22 134 54 40 30 60 70 60 116v0c-64 8-112 62-112 128 0 70 58 128 128 128s128-58 128-128zM32 704c0-52 44-96 96-96s96 44 96 96-44 96-96 96-96-44-96-96zM224 64c0 52-44 96-96 96s-96-44-96-96 44-96 96-96 96 44 96 96zM512 480c52 0 96 44 96 96s-44 96-96 96-96-44-96-96 44-96 96-96z" />
<glyph unicode="&#xf184;" glyph-name="ios-git-commit" horiz-adv-x="896" d="M880 400c8 0 16-8 16-16s-8-16-16-16h-176c-8-134-120-240-256-240s-248 106-256 240v0h-176c-8 0-16 8-16 16s8 16 16 16h176c8 134 120 240 256 240s248-106 256-240v0h176zM606 226c42 42 66 98 66 158s-24 116-66 158-98 66-158 66-116-24-158-66-66-98-66-158 24-116 66-158 98-66 158-66 116 24 158 66z" />
<glyph unicode="&#xf185;" glyph-name="ios-git-compare" horiz-adv-x="896" d="M384 204l118-120c12-12 12-32 0-44l-114-116c-4-4-8-4-12-4s-8 0-12 4c-6 6-6 18 0 24l100 100h-208c-62 0-106 28-128 82-18 44-18 98-18 126v322c-62 8-110 62-110 126 0 70 58 128 128 128s128-58 128-128c0-66-50-120-114-128v-320c0-92 16-176 114-176h208l-104 100c-6 6-6 18 0 24s18 6 24 0zM32 704c0-52 44-96 96-96s96 44 96 96-44 96-96 96-96-44-96-96zM786 190c62-8 110-62 110-126 0-70-58-128-128-128s-128 58-128 128c0 66 50 120 114 128v320c0 92-16 176-114 176h-208l104-100c6-6 6-18 0-24s-18-6-24 0l-118 120c-12 12-12 32 0 44l114 116c4 4 8 4 12 4s8 0 12-4c6-6 6-18 0-24l-100-100h208c62 0 106-28 128-82 18-44 18-98 18-126v-322zM768-32c52 0 96 44 96 96s-44 96-96 96-96-44-96-96 44-96 96-96z" />
<glyph unicode="&#xf186;" glyph-name="ios-git-merge" horiz-adv-x="768" d="M640 448c70 0 128-58 128-128s-58-128-128-128c-66 0-118 50-126 112h-2c-22 0-66 2-122 24-68 26-162 86-248 218v-354c64-8 114-62 114-128 0-70-58-128-128-128s-128 58-128 128c0 64 48 118 110 126v388c-62 8-110 62-110 126 0 70 58 128 128 128s128-58 128-128c0-60-40-110-96-124 84-138 176-196 242-222 52-20 92-22 110-22 8 64 62 112 128 112zM32 704c0-52 44-96 96-96s96 44 96 96-44 96-96 96-96-44-96-96zM224 64c0 52-44 96-96 96s-96-44-96-96 44-96 96-96 96 44 96 96zM640 224c52 0 96 44 96 96s-44 96-96 96-96-44-96-96 44-96 96-96z" />
<glyph unicode="&#xf187;" glyph-name="ios-git-network" horiz-adv-x="768" d="M768 704c0-66-48-120-112-128v-138l-256-126v-120h2c62-8 110-64 110-128 0-70-58-128-128-128s-128 58-128 128c0 66 48 120 112 128v120l-256 126v140h-2c-62 8-110 62-110 126 0 70 58 128 128 128s128-58 128-128c0-66-48-120-112-128v-118l240-118 240 118v120h-2c-62 8-110 62-110 126 0 70 58 128 128 128s128-58 128-128zM32 704c0-52 44-96 96-96s96 44 96 96-44 96-96 96-96-44-96-96zM480 64c0 52-44 96-96 96s-96-44-96-96 44-96 96-96 96 44 96 96zM640 608c52 0 96 44 96 96s-44 96-96 96-96-44-96-96 44-96 96-96z" />
<glyph unicode="&#xf188;" glyph-name="ios-git-pull-request" horiz-adv-x="768" d="M256 704c0-66-50-120-114-128v-384c64-8 114-62 114-128 0-70-58-128-128-128s-128 58-128 128c0 64 48 118 110 126v388c-62 8-110 62-110 126 0 70 58 128 128 128s128-58 128-128zM32 704c0-52 44-96 96-96s96 44 96 96-44 96-96 96-96-44-96-96zM224 64c0 52-44 96-96 96s-96-44-96-96 44-96 96-96 96 44 96 96zM658 190c62-8 110-62 110-126 0-70-58-128-128-128s-128 58-128 128c0 66 50 120 114 128v320c0 92-16 176-114 176h-208l104-100c6-6 6-18 0-24s-18-6-24 0l-118 120c-12 12-12 32 0 44l114 116c4 4 8 4 12 4s8 0 12-4c6-6 6-18 0-24l-100-100h208c62 0 106-28 128-82 18-44 18-98 18-126v-322zM640-32c52 0 96 44 96 96s-44 96-96 96-96-44-96-96 44-96 96-96z" />
</font>
</defs>
</svg>
